<svg width="18" height="16" viewBox="0 0 18 16" fill="none" xmlns="http://www.w3.org/2000/svg">
<path d="M1 15H5.673V7H1V15ZM6.673 15H11.327V1H6.673V15ZM12.327 15H17V9H12.327V15ZM0 14.384V7.616C0 7.17133 0.158333 6.791 0.475 6.475C0.791667 6.159 1.17167 6.00067 1.615 6H5.673V1.616C5.673 1.17133 5.83133 0.791 6.148 0.475C6.46467 0.159 6.84467 0.000666667 7.288 0H10.712C11.156 0 11.536 0.158333 11.852 0.475C12.168 0.791667 12.3263 1.17167 12.327 1.615V8H16.385C16.829 8 17.209 8.15833 17.525 8.475C17.841 8.79167 17.9993 9.17167 18 9.615V14.385C18 14.829 17.8417 15.209 17.525 15.525C17.2083 15.841 16.8283 15.9993 16.385 16H1.615C1.171 16 0.791 15.8417 0.475 15.525C0.159 15.2083 0.000666667 14.8287 0 14.386" fill="#6158FF"/>
</svg>
