<svg width="20" height="17" viewBox="0 0 20 17" fill="none" xmlns="http://www.w3.org/2000/svg">
<path d="M19.3057 8.28287C19.3056 8.59018 19.1835 8.88488 18.9661 9.10214L12.0134 16.0549C11.7948 16.266 11.5021 16.3828 11.1983 16.3802C10.8944 16.3775 10.6038 16.2556 10.3889 16.0408C10.1741 15.8259 10.0522 15.5353 10.0496 15.2315C10.0469 14.9276 10.1637 14.6349 10.3748 14.4164L15.3495 9.44167L1.92373 9.44167C1.6164 9.44167 1.32166 9.31958 1.10434 9.10227C0.887025 8.88495 0.76494 8.59021 0.76494 8.28287C0.76494 7.97554 0.887026 7.6808 1.10434 7.46348C1.32166 7.24617 1.6164 7.12408 1.92373 7.12408L15.3495 7.12408L10.3748 2.14937C10.1637 1.93082 10.0469 1.6381 10.0496 1.33427C10.0522 1.03044 10.1741 0.7398 10.3889 0.52495C10.6038 0.3101 10.8944 0.188231 11.1983 0.18559C11.5021 0.18295 11.7948 0.299751 12.0134 0.510835L18.9661 7.46361C19.1835 7.68087 19.3056 7.97557 19.3057 8.28287Z" fill="#6158FF"/>
</svg>
