<svg width="28" height="28" viewBox="0 0 28 28" fill="none" xmlns="http://www.w3.org/2000/svg">
<path d="M8.48686 2.63599H9.62322C9.92461 2.63599 10.2136 2.75571 10.4268 2.96882C10.6399 3.18193 10.7596 3.47097 10.7596 3.77235V4.90871H16.4414V3.77235C16.4414 3.47097 16.5611 3.18193 16.7742 2.96882C16.9873 2.75571 17.2764 2.63599 17.5778 2.63599H18.7141C19.0155 2.63599 19.3046 2.75571 19.5177 2.96882C19.7308 3.18193 19.8505 3.47097 19.8505 3.77235V4.90871C20.7546 4.90871 21.6218 5.26788 22.2611 5.90721C22.9004 6.54654 23.2596 7.41366 23.2596 8.3178V20.8178C23.2596 21.722 22.9004 22.5891 22.2611 23.2284C21.6218 23.8677 20.7546 24.2269 19.8505 24.2269H7.3505C6.44635 24.2269 5.57923 23.8677 4.93991 23.2284C4.30058 22.5891 3.94141 21.722 3.94141 20.8178V8.3178C3.94141 7.41366 4.30058 6.54654 4.93991 5.90721C5.57923 5.26788 6.44635 4.90871 7.3505 4.90871V3.77235C7.3505 3.47097 7.47022 3.18193 7.68333 2.96882C7.89644 2.75571 8.18548 2.63599 8.48686 2.63599ZM17.5778 4.90871H18.7141V3.77235H17.5778V4.90871ZM9.62322 4.90871V3.77235H8.48686V4.90871H9.62322ZM7.3505 6.04508C6.74773 6.04508 6.16965 6.28452 5.74344 6.71074C5.31722 7.13696 5.07777 7.71504 5.07777 8.3178V9.45417H22.1232V8.3178C22.1232 7.71504 21.8838 7.13696 21.4576 6.71074C21.0313 6.28452 20.4533 6.04508 19.8505 6.04508H7.3505ZM5.07777 20.8178C5.07777 21.4206 5.31722 21.9986 5.74344 22.4249C6.16965 22.8511 6.74773 23.0905 7.3505 23.0905H19.8505C20.4533 23.0905 21.0313 22.8511 21.4576 22.4249C21.8838 21.9986 22.1232 21.4206 22.1232 20.8178V10.5905H5.07777V20.8178ZM14.1687 15.136H19.8505V20.8178H14.1687V15.136ZM15.305 16.2724V19.6814H18.7141V16.2724H15.305Z" fill="#8780FF"/>
</svg>
