<svg width="16" height="17" viewBox="0 0 16 17" fill="none" xmlns="http://www.w3.org/2000/svg">
<path d="M3.71398 5.75806C3.52298 4.50006 4.40998 3.37006 5.76498 2.95606C6.00544 2.88304 6.26467 2.90419 6.49011 3.01524C6.71555 3.12629 6.89032 3.31891 6.97898 3.55406L7.41398 4.71406C7.48401 4.90067 7.49667 5.10395 7.45034 5.29781C7.40401 5.49167 7.30081 5.66727 7.15398 5.80206L5.85998 6.98706C5.79611 7.04553 5.74853 7.11959 5.72189 7.20197C5.69524 7.28436 5.69045 7.37226 5.70798 7.45706L5.71998 7.50906L5.75098 7.63906C5.91231 8.27057 6.15749 8.87763 6.47998 9.44406C6.8321 10.0455 7.26853 10.5934 7.77598 11.0711L7.81598 11.1071C7.88058 11.1644 7.95893 11.204 8.04341 11.2221C8.12788 11.2401 8.21558 11.236 8.29798 11.2101L9.97098 10.6831C10.1611 10.6234 10.3647 10.6218 10.5557 10.6787C10.7468 10.7355 10.9164 10.8481 11.043 11.0021L11.835 11.9631C12.165 12.3631 12.125 12.9511 11.746 13.3041C10.709 14.2711 9.28298 14.4691 8.29098 13.6721C7.07449 12.6917 6.04933 11.4954 5.26698 10.1431C4.47697 8.79252 3.95069 7.30467 3.71398 5.75806ZM6.75598 7.52306L7.82798 6.53906C8.12182 6.26959 8.32841 5.91846 8.42125 5.53073C8.51408 5.143 8.48891 4.73638 8.34898 4.36306L7.91498 3.20306C7.73693 2.72983 7.38542 2.34212 6.93186 2.11868C6.47829 1.89524 5.95668 1.85283 5.47298 2.00006C3.78998 2.51506 2.43898 4.02406 2.72498 5.90906C2.92498 7.22506 3.38598 8.89906 4.40298 10.6471C5.24709 12.1052 6.35293 13.3951 7.66498 14.4521C9.15298 15.6471 11.139 15.2391 12.429 14.0371C12.7981 13.6934 13.0221 13.2218 13.0554 12.7185C13.0887 12.2153 12.9286 11.7183 12.608 11.3291L11.816 10.3671C11.5626 10.0595 11.2232 9.8347 10.8412 9.72139C10.4592 9.60807 10.052 9.61144 9.67198 9.73106L8.28298 10.1681C7.92432 9.79831 7.61018 9.38785 7.34698 8.94506C7.09299 8.49727 6.89485 8.02005 6.75698 7.52406" fill="#737373"/>
</svg>
