<svg width="16" height="17" viewBox="0 0 16 17" fill="none" xmlns="http://www.w3.org/2000/svg">
<path d="M8.33333 8.36133V5.5C8.33333 5.40533 8.30133 5.32622 8.23733 5.26267C8.17333 5.19911 8.094 5.16711 7.99933 5.16667C7.90467 5.16622 7.82556 5.19822 7.762 5.26267C7.69844 5.32711 7.66667 5.40622 7.66667 5.5V8.41933C7.66667 8.48733 7.67911 8.55333 7.704 8.61733C7.72889 8.68089 7.77022 8.74178 7.828 8.8L10.1947 11.1667C10.2569 11.2289 10.3336 11.2622 10.4247 11.2667C10.5158 11.2711 10.5964 11.2378 10.6667 11.1667C10.7369 11.0956 10.7724 11.0169 10.7733 10.9307C10.7742 10.8444 10.7387 10.7658 10.6667 10.6947L8.33333 8.36133ZM8.002 14.5C7.17267 14.5 6.39267 14.3427 5.662 14.028C4.93178 13.7129 4.29644 13.2853 3.756 12.7453C3.21556 12.2053 2.78778 11.5707 2.47267 10.8413C2.15756 10.112 2 9.33222 2 8.502C2 7.67178 2.15756 6.89178 2.47267 6.162C2.78733 5.43178 3.21422 4.79644 3.75333 4.256C4.29244 3.71556 4.92733 3.28778 5.658 2.97267C6.38867 2.65756 7.16867 2.5 7.998 2.5C8.82733 2.5 9.60733 2.65756 10.338 2.97267C11.0682 3.28733 11.7036 3.71444 12.244 4.254C12.7844 4.79356 13.2122 5.42844 13.5273 6.15867C13.8424 6.88889 14 7.66867 14 8.498C14 9.32733 13.8427 10.1073 13.528 10.838C13.2133 11.5687 12.7858 12.204 12.2453 12.744C11.7049 13.284 11.0702 13.7118 10.3413 14.0273C9.61244 14.3429 8.83267 14.5004 8.002 14.5ZM8 13.8333C9.47778 13.8333 10.7362 13.314 11.7753 12.2753C12.8144 11.2367 13.3338 9.97822 13.3333 8.5C13.3329 7.02178 12.8136 5.76333 11.7753 4.72467C10.7371 3.686 9.47867 3.16667 8 3.16667C6.52133 3.16667 5.26289 3.68622 4.22467 4.72533C3.18644 5.76444 2.66711 7.02267 2.66667 8.5C2.66622 9.97733 3.18578 11.2358 4.22533 12.2753C5.26489 13.3149 6.52311 13.8342 8 13.8333Z" fill="#737373"/>
</svg>
