<svg width="24" height="25" viewBox="0 0 24 25" fill="none" xmlns="http://www.w3.org/2000/svg">
<path d="M21.7097 9.6589C22.9597 8.4089 22.3897 6.9489 21.7097 6.2389L18.7097 3.2389C17.4497 1.9889 15.9997 2.5589 15.2897 3.2389L13.5897 4.9489H10.9997C9.09969 4.9489 7.99968 5.9489 7.43968 7.0989L2.99968 11.5389V15.5389L2.28968 16.2389C1.03968 17.4989 1.60968 18.9489 2.28968 19.6589L5.28968 22.6589C5.82968 23.1989 6.40968 23.3989 6.95968 23.3989C7.66968 23.3989 8.31968 23.0489 8.70968 22.6589L11.4097 19.9489H14.9997C16.6997 19.9489 17.5597 18.8889 17.8697 17.8489C18.9997 17.5489 19.6197 16.6889 19.8697 15.8489C21.4197 15.4489 21.9997 13.9789 21.9997 12.9489V9.9489H21.4097L21.7097 9.6589ZM19.9997 12.9489C19.9997 13.3989 19.8097 13.9489 18.9997 13.9489H17.9997V14.9489C17.9997 15.3989 17.8097 15.9489 16.9997 15.9489H15.9997V16.9489C15.9997 17.3989 15.8097 17.9489 14.9997 17.9489H10.5897L7.30968 21.2289C6.99968 21.5189 6.81968 21.3489 6.70968 21.2389L3.71968 18.2589C3.42968 17.9489 3.59968 17.7689 3.70968 17.6589L4.99968 16.3589V12.3589L6.99968 10.3589V11.9489C6.99968 13.1589 7.79969 14.9489 9.99969 14.9489C12.1997 14.9489 12.9997 13.1589 12.9997 11.9489H19.9997V12.9489ZM20.2897 8.2389L18.5897 9.9489H10.9997V11.9489C10.9997 12.3989 10.8097 12.9489 9.99969 12.9489C9.18969 12.9489 8.99968 12.3989 8.99968 11.9489V8.9489C8.99968 8.4889 9.16969 6.9489 10.9997 6.9489H14.4097L16.6897 4.6689C16.9997 4.3789 17.1797 4.5489 17.2897 4.6589L20.2797 7.6389C20.5697 7.9489 20.3997 8.1289 20.2897 8.2389Z" fill="#6158FF"/>
</svg>
