<svg width="19" height="14" viewBox="0 0 19 14" fill="none" xmlns="http://www.w3.org/2000/svg">
<path d="M0 1.375C0 1.01033 0.144866 0.660591 0.402728 0.402728C0.660591 0.144865 1.01033 0 1.375 0H16.9583C17.323 7.6849e-09 17.6727 0.144865 17.9306 0.402728C18.1885 0.660591 18.3333 1.01033 18.3333 1.375C18.3333 1.73967 18.1885 2.08941 17.9306 2.34727C17.6727 2.60513 17.323 2.75 16.9583 2.75H1.375C1.01033 2.75 0.660591 2.60513 0.402728 2.34727C0.144866 2.08941 0 1.73967 0 1.375ZM3.66667 6.875C3.66667 6.51033 3.81153 6.16059 4.06939 5.90273C4.32726 5.64487 4.67699 5.5 5.04167 5.5H13.2917C13.6563 5.5 14.0061 5.64487 14.2639 5.90273C14.5218 6.16059 14.6667 6.51033 14.6667 6.875C14.6667 7.23967 14.5218 7.58941 14.2639 7.84727C14.0061 8.10513 13.6563 8.25 13.2917 8.25H5.04167C4.67699 8.25 4.32726 8.10513 4.06939 7.84727C3.81153 7.58941 3.66667 7.23967 3.66667 6.875ZM7.79167 11C7.42699 11 7.07726 11.1449 6.81939 11.4027C6.56153 11.6606 6.41667 12.0103 6.41667 12.375C6.41667 12.7397 6.56153 13.0894 6.81939 13.3473C7.07726 13.6051 7.42699 13.75 7.79167 13.75H10.5417C10.9063 13.75 11.2561 13.6051 11.5139 13.3473C11.7718 13.0894 11.9167 12.7397 11.9167 12.375C11.9167 12.0103 11.7718 11.6606 11.5139 11.4027C11.2561 11.1449 10.9063 11 10.5417 11H7.79167Z" fill="#6158FF"/>
</svg>
