<svg width="17" height="22" viewBox="0 0 17 22" fill="none" xmlns="http://www.w3.org/2000/svg">
<path d="M11.4474 9.13796C10.5694 9.13796 9.72743 8.7892 9.10663 8.1684C8.48583 7.54761 8.13707 6.70562 8.13707 5.82768V1.41397H3.72337C3.13807 1.41397 2.57675 1.64648 2.16289 2.06035C1.74902 2.47421 1.51651 3.03553 1.51651 3.62083V17.9654C1.51651 18.5507 1.74902 19.112 2.16289 19.5259C2.57675 19.9397 3.13807 20.1722 3.72337 20.1722H13.6542C14.2395 20.1722 14.8008 19.9397 15.2147 19.5259C15.6286 19.112 15.8611 18.5507 15.8611 17.9654V9.13796H11.4474ZM9.2405 5.82768C9.2405 6.41298 9.47301 6.9743 9.88687 7.38816C10.3007 7.80203 10.8621 8.03454 11.4474 8.03454H15.4087L9.2405 1.86638V5.82768ZM3.72337 0.310547H9.2405L16.9645 8.03454V17.9654C16.9645 18.8433 16.6157 19.6853 15.9949 20.3061C15.3741 20.9269 14.5321 21.2757 13.6542 21.2757H3.72337C2.84543 21.2757 2.00344 20.9269 1.38264 20.3061C0.761847 19.6853 0.413086 18.8433 0.413086 17.9654V3.62083C0.413086 2.74289 0.761847 1.9009 1.38264 1.28011C2.00344 0.659308 2.84543 0.310547 3.72337 0.310547Z" fill="#6B7280"/>
</svg>
