<svg width="25" height="25" viewBox="0 0 25 25" fill="none" xmlns="http://www.w3.org/2000/svg">
<path d="M3.12695 10.4173C3.12695 6.48919 3.12695 4.52461 4.34779 3.30482C5.56862 2.08503 7.53216 2.08398 11.4603 2.08398H13.5436C17.4717 2.08398 19.4363 2.08398 20.6561 3.30482C21.8759 4.52565 21.877 6.48919 21.877 10.4173V14.584C21.877 18.5121 21.8769 20.4767 20.6561 21.6965C19.4353 22.9163 17.4717 22.9173 13.5436 22.9173H11.4603C7.53216 22.9173 5.56758 22.9173 4.34779 21.6965C3.12799 20.4756 3.12695 18.5121 3.12695 14.584V10.4173Z" stroke="#6158FF" stroke-width="1.89795"/>
<path d="M8.33594 10.418H16.6693M8.33594 14.5846H13.5443" stroke="#6158FF" stroke-width="1.89795" stroke-linecap="round"/>
</svg>
