<svg width="18" height="18" viewBox="0 0 18 18" fill="none" xmlns="http://www.w3.org/2000/svg">
<path d="M9.0013 12.9733C8.86241 12.9733 8.73221 12.9518 8.61068 12.9087C8.48915 12.8657 8.3763 12.7917 8.27214 12.6869L4.52214 8.93685C4.3138 8.72852 4.2138 8.48546 4.22214 8.20769C4.23047 7.92991 4.33047 7.68685 4.52214 7.47852C4.73047 7.27019 4.97804 7.16185 5.26484 7.15352C5.55165 7.14519 5.79887 7.24484 6.00651 7.45248L7.95964 9.4056V1.95769C7.95964 1.66255 8.05964 1.41532 8.25964 1.21602C8.45964 1.01671 8.70686 0.916714 9.0013 0.916019C9.29575 0.915325 9.54332 1.01532 9.74401 1.21602C9.94471 1.41671 10.0444 1.66394 10.043 1.95769V9.4056L11.9961 7.45248C12.2044 7.24414 12.452 7.14414 12.7388 7.15248C13.0256 7.16081 13.2728 7.26949 13.4805 7.47852C13.6714 7.68685 13.7714 7.92991 13.7805 8.20769C13.7895 8.48546 13.6895 8.72852 13.4805 8.93685L9.73047 12.6869C9.6263 12.791 9.51346 12.865 9.39193 12.9087C9.2704 12.9525 9.14019 12.974 9.0013 12.9733ZM2.7513 17.5827C2.17839 17.5827 1.68811 17.3789 1.28047 16.9712C0.87283 16.5636 0.668663 16.073 0.667969 15.4994V13.416C0.667969 13.1209 0.767969 12.8737 0.967969 12.6744C1.16797 12.475 1.41519 12.375 1.70964 12.3744C2.00408 12.3737 2.25165 12.4737 2.45234 12.6744C2.65304 12.875 2.75269 13.1223 2.7513 13.416V15.4994H15.2513V13.416C15.2513 13.1209 15.3513 12.8737 15.5513 12.6744C15.7513 12.475 15.9985 12.375 16.293 12.3744C16.5874 12.3737 16.835 12.4737 17.0357 12.6744C17.2364 12.875 17.336 13.1223 17.3346 13.416V15.4994C17.3346 16.0723 17.1308 16.5629 16.7232 16.9712C16.3155 17.3796 15.8249 17.5834 15.2513 17.5827H2.7513Z" fill="#8780FF"/>
</svg>
