<svg width="13" height="7" viewBox="0 0 13 7" fill="none" xmlns="http://www.w3.org/2000/svg">
<path fill-rule="evenodd" clip-rule="evenodd" d="M0.874664 0.436676C0.578237 0.733104 0.578237 1.21371 0.874665 1.51014L6.0417 6.67717C6.04676 6.68253 6.05191 6.68783 6.05715 6.69307C6.20542 6.84134 6.39977 6.91545 6.5941 6.91539C6.78844 6.91545 6.98279 6.84134 7.13106 6.69307C7.1363 6.68783 7.14145 6.68253 7.14651 6.67717L12.3135 1.51014C12.61 1.21371 12.61 0.733104 12.3135 0.436676C12.0171 0.140249 11.5365 0.140249 11.2401 0.436676L6.5941 5.08266L1.94812 0.436676C1.6517 0.140249 1.17109 0.140249 0.874664 0.436676Z" fill="#615E83"/>
</svg>
