<svg width="12" height="9" viewBox="0 0 12 9" fill="none" xmlns="http://www.w3.org/2000/svg">
<path d="M10.21 5.72205e-06H1.79001C1.4576 -0.000475883 1.13184 0.0931911 0.850455 0.270164C0.569067 0.447138 0.34355 0.700181 0.200008 1.00001C0.0319755 1.35575 -0.0327436 1.75154 0.0132253 2.14227C0.0591941 2.53301 0.214002 2.90297 0.460008 3.21001L4.67001 8.31001C4.83522 8.50064 5.03949 8.65352 5.26896 8.7583C5.49843 8.86308 5.74775 8.91731 6.00001 8.91731C6.25227 8.91731 6.50158 8.86308 6.73106 8.7583C6.96053 8.65352 7.16479 8.50064 7.33001 8.31001L11.54 3.21001C11.786 2.90297 11.9408 2.53301 11.9868 2.14227C12.0328 1.75154 11.968 1.35575 11.8 1.00001C11.6565 0.700181 11.4309 0.447138 11.1496 0.270164C10.8682 0.0931911 10.5424 -0.000475883 10.21 5.72205e-06Z" fill="#6158FF"/>
</svg>
