<svg width="24" height="12" viewBox="0 0 24 12" fill="none" xmlns="http://www.w3.org/2000/svg">
<g clip-path="url(#clip0_1058_2054)">
<path d="M16.8873 3.98253C17.1802 3.68956 17.6553 3.68967 17.9481 3.98278C18.2407 4.27566 18.2406 4.75024 17.9479 5.04303L12.7008 10.292C12.6082 10.3851 12.4982 10.4591 12.3769 10.5095C12.2557 10.56 12.1256 10.5859 11.9943 10.5859C11.863 10.5859 11.733 10.56 11.6117 10.5095C11.4905 10.4591 11.3804 10.3851 11.2878 10.292L6.03791 5.04299C5.74515 4.75028 5.74513 4.27567 6.03786 3.98294C6.33055 3.69025 6.80509 3.69023 7.09781 3.98289L11.2857 8.17001C11.6762 8.56047 12.3094 8.56044 12.6999 8.16995L16.8873 3.98253Z" fill="#8780FF"/>
</g>
<defs>
<clipPath id="clip0_1058_2054">
<rect width="12" height="24" fill="white" transform="matrix(0 1 -1 0 24 0)"/>
</clipPath>
</defs>
</svg>
