<svg width="27" height="25" viewBox="0 0 27 25" fill="none" xmlns="http://www.w3.org/2000/svg">
<path d="M18.5334 5.63242L20.915 7.83763M20.0645 3.68971L13.6216 9.65534C13.2878 9.96247 13.0605 10.3549 12.9691 10.7824L12.374 13.5408L15.353 12.9887C15.8143 12.9033 16.2373 12.6939 16.5703 12.3855L23.0131 6.41992C23.2068 6.24065 23.3603 6.02783 23.4651 5.79361C23.5699 5.55938 23.6238 5.30834 23.6238 5.05482C23.6238 4.80129 23.5699 4.55025 23.4651 4.31603C23.3603 4.0818 23.2068 3.86898 23.0131 3.68971C22.8195 3.51044 22.5897 3.36824 22.3367 3.27122C22.0838 3.1742 21.8126 3.12427 21.5388 3.12427C21.265 3.12427 20.9939 3.1742 20.7409 3.27122C20.488 3.36824 20.2581 3.51044 20.0645 3.68971Z" stroke="#6158FF" stroke-width="2.22816" stroke-linecap="round" stroke-linejoin="round"/>
<path d="M21.374 15.6244V18.7494C21.374 19.302 21.137 19.8319 20.715 20.2226C20.2931 20.6133 19.7208 20.8328 19.124 20.8328H6.74902C6.15229 20.8328 5.57999 20.6133 5.15803 20.2226C4.73608 19.8319 4.49902 19.302 4.49902 18.7494V7.2911C4.49902 6.73856 4.73608 6.20866 5.15803 5.81796C5.57999 5.42726 6.15229 5.20776 6.74902 5.20776H10.124" stroke="#6158FF" stroke-width="2.22816" stroke-linecap="round" stroke-linejoin="round"/>
</svg>
