<svg width="18" height="20" viewBox="0 0 18 20" fill="none" xmlns="http://www.w3.org/2000/svg">
<path d="M15.925 1.13693C15.6438 0.855589 15.3099 0.632424 14.9424 0.480197C14.575 0.327969 14.1811 0.249663 13.7833 0.249756C13.3855 0.249849 12.9917 0.328338 12.6243 0.480738C12.2568 0.633137 11.9231 0.856457 11.642 1.13793L2.135 10.6579C1.56853 11.2257 1.25028 11.9949 1.25 12.7969V15.9999C1.25 16.4139 1.586 16.7499 2 16.7499H5.223C6.026 16.7499 6.796 16.4299 7.363 15.8629L16.863 6.35693C17.4297 5.7889 17.7479 5.0193 17.7479 4.21693C17.7479 3.41457 17.4297 2.64496 16.863 2.07693L15.925 1.13693ZM1 18.2499C0.801088 18.2499 0.610322 18.3289 0.46967 18.4696C0.329018 18.6103 0.25 18.801 0.25 18.9999C0.25 19.1988 0.329018 19.3896 0.46967 19.5303C0.610322 19.6709 0.801088 19.7499 1 19.7499H17C17.1989 19.7499 17.3897 19.6709 17.5303 19.5303C17.671 19.3896 17.75 19.1988 17.75 18.9999C17.75 18.801 17.671 18.6103 17.5303 18.4696C17.3897 18.3289 17.1989 18.2499 17 18.2499H1Z" fill="#28A745"/>
</svg>
