<svg width="16" height="17" viewBox="0 0 16 17" fill="none" xmlns="http://www.w3.org/2000/svg">
<path d="M3.33331 3.83337H12C12.5304 3.83337 13.0391 4.04409 13.4142 4.41916C13.7893 4.79423 14 5.30294 14 5.83337V11.8334C14 12.3638 13.7893 12.8725 13.4142 13.2476C13.0391 13.6227 12.5304 13.8334 12 13.8334H3.33331C2.80288 13.8334 2.29417 13.6227 1.9191 13.2476C1.54403 12.8725 1.33331 12.3638 1.33331 11.8334V5.83337C1.33331 5.30294 1.54403 4.79423 1.9191 4.41916C2.29417 4.04409 2.80288 3.83337 3.33331 3.83337ZM3.33331 4.50004C2.99998 4.50004 2.70665 4.61337 2.47998 4.81337L7.66665 8.16671L12.8533 4.81337C12.6266 4.61337 12.3333 4.50004 12 4.50004H3.33331ZM7.66665 8.97337L2.08665 5.35337C2.03331 5.50004 1.99998 5.66671 1.99998 5.83337V11.8334C1.99998 12.187 2.14046 12.5261 2.3905 12.7762C2.64055 13.0262 2.97969 13.1667 3.33331 13.1667H12C12.3536 13.1667 12.6927 13.0262 12.9428 12.7762C13.1928 12.5261 13.3333 12.187 13.3333 11.8334V5.83337C13.3333 5.66671 13.3 5.50004 13.2466 5.35337L7.66665 8.97337Z" fill="#737373"/>
</svg>
