<svg width="26" height="26" viewBox="0 0 26 26" fill="none" xmlns="http://www.w3.org/2000/svg">
<path d="M13 13C13 13.862 13.3424 14.6886 13.9519 15.2981C14.5614 15.9076 15.388 16.25 16.25 16.25C17.112 16.25 17.9386 15.9076 18.5481 15.2981C19.1576 14.6886 19.5 13.862 19.5 13C19.5 12.138 19.1576 11.3114 18.5481 10.7019C17.9386 10.0924 17.112 9.75 16.25 9.75C15.388 9.75 14.5614 10.0924 13.9519 10.7019C13.3424 11.3114 13 12.138 13 13Z" stroke="#6158FF" stroke-width="1.5" stroke-linecap="round" stroke-linejoin="round"/>
<path d="M6.50098 6.5C6.50098 5.63805 6.84339 4.8114 7.45288 4.2019C8.06237 3.59241 8.88902 3.25 9.75098 3.25H16.251C17.1129 3.25 17.9396 3.59241 18.5491 4.2019C19.1586 4.8114 19.501 5.63805 19.501 6.5C19.501 7.36195 19.1586 8.1886 18.5491 8.7981C17.9396 9.40759 17.1129 9.75 16.251 9.75H9.75098C8.88902 9.75 8.06237 9.40759 7.45288 8.7981C6.84339 8.1886 6.50098 7.36195 6.50098 6.5Z" stroke="#6158FF" stroke-width="1.5" stroke-linecap="round" stroke-linejoin="round"/>
<path d="M9.75098 9.75C8.88902 9.75 8.06237 10.0924 7.45288 10.7019C6.84339 11.3114 6.50098 12.138 6.50098 13C6.50098 13.862 6.84339 14.6886 7.45288 15.2981C8.06237 15.9076 8.88902 16.25 9.75098 16.25M9.75098 16.25H13.001M9.75098 16.25C9.10819 16.25 8.47983 16.4406 7.94537 16.7977C7.41091 17.1548 6.99435 17.6624 6.74837 18.2563C6.50238 18.8501 6.43802 19.5036 6.56343 20.134C6.68883 20.7645 6.99836 21.3436 7.45288 21.7981C7.9074 22.2526 8.4865 22.5621 9.11693 22.6876C9.74737 22.813 10.4008 22.7486 10.9947 22.5026C11.5886 22.2566 12.0961 21.8401 12.4533 21.3056C12.8104 20.7711 13.001 20.1428 13.001 19.5V3.25" stroke="#6158FF" stroke-width="1.5" stroke-linecap="round" stroke-linejoin="round"/>
</svg>
