<svg width="43" height="39" viewBox="0 0 43 39" fill="none" xmlns="http://www.w3.org/2000/svg">
<rect width="43" height="39" rx="2" fill="#EDECFF"/>
<path d="M22 29C24.1217 29 26.1566 28.1571 27.6569 26.6569C29.1571 25.1566 30 23.1217 30 21C30 18.8783 29.1571 16.8434 27.6569 15.3431C26.1566 13.8429 24.1217 13 22 13C19.8783 13 17.8434 13.8429 16.3431 15.3431C14.8429 16.8434 14 18.8783 14 21C14 23.1217 14.8429 25.1566 16.3431 26.6569C17.8434 28.1571 19.8783 29 22 29ZM22 11C23.3132 11 24.6136 11.2587 25.8268 11.7612C27.0401 12.2638 28.1425 13.0003 29.0711 13.9289C29.9997 14.8575 30.7362 15.9599 31.2388 17.1732C31.7413 18.3864 32 19.6868 32 21C32 23.6522 30.9464 26.1957 29.0711 28.0711C27.1957 29.9464 24.6522 31 22 31C16.47 31 12 26.5 12 21C12 18.3478 13.0536 15.8043 14.9289 13.9289C16.8043 12.0536 19.3478 11 22 11ZM22.5 16V21.25L27 23.92L26.25 25.15L21 22V16H22.5Z" fill="#8780FF"/>
</svg>
