<svg width="24" height="24" viewBox="0 0 24 24" fill="none" xmlns="http://www.w3.org/2000/svg">
<path d="M12.2461 9.81824V14.4655H18.8361C18.5467 15.9601 17.6783 17.2256 16.3759 18.0765L20.35 21.0984C22.6654 19.0039 24.0012 15.9275 24.0012 12.2729C24.0012 11.422 23.9233 10.6038 23.7785 9.81837L12.2461 9.81824Z" fill="#4285F4"/>
<path d="M5.38141 14.2841L4.48511 14.9564L1.3125 17.3782C3.32735 21.2946 7.45694 24.0001 12.2436 24.0001C15.5496 24.0001 18.3214 22.931 20.3474 21.0983L16.3734 18.0764C15.2825 18.7964 13.891 19.2328 12.2436 19.2328C9.05989 19.2328 6.35495 17.1274 5.38641 14.291L5.38141 14.2841Z" fill="#34A853"/>
<path d="M1.31346 6.62183C0.478617 8.23631 0 10.0582 0 12C0 13.9418 0.478617 15.7636 1.31346 17.3781C1.31346 17.3889 5.38776 14.2799 5.38776 14.2799C5.14286 13.5599 4.99811 12.7963 4.99811 11.9998C4.99811 11.2034 5.14286 10.4398 5.38776 9.71977L1.31346 6.62183Z" fill="#FBBC05"/>
<path d="M12.2438 4.77821C14.0472 4.77821 15.6501 5.3891 16.9303 6.56731L20.4368 3.13097C18.3106 1.18917 15.55 0 12.2438 0C7.45719 0 3.32735 2.69456 1.3125 6.62186L5.38668 9.72007C6.35509 6.88366 9.06014 4.77821 12.2438 4.77821Z" fill="#EA4335"/>
</svg>
