<svg width="31" height="31" viewBox="0 0 31 31" fill="none" xmlns="http://www.w3.org/2000/svg">
<path d="M5.03711 22.6683C5.03711 21.3323 5.56784 20.051 6.51255 19.1063C7.45727 18.1616 8.73857 17.6309 10.0746 17.6309H20.1496C21.4856 17.6309 22.7669 18.1616 23.7116 19.1063C24.6563 20.051 25.187 21.3323 25.187 22.6683C25.187 23.3364 24.9217 23.977 24.4493 24.4494C23.977 24.9217 23.3363 25.1871 22.6683 25.1871H7.55585C6.88784 25.1871 6.24719 24.9217 5.77483 24.4494C5.30248 23.977 5.03711 23.3364 5.03711 22.6683Z" stroke="#6158FF" stroke-width="2.51874" stroke-linejoin="round"/>
<path d="M15.1131 12.5933C17.1997 12.5933 18.8912 10.9018 18.8912 8.81522C18.8912 6.72863 17.1997 5.03711 15.1131 5.03711C13.0265 5.03711 11.335 6.72863 11.335 8.81522C11.335 10.9018 13.0265 12.5933 15.1131 12.5933Z" stroke="#6158FF" stroke-width="2.51874"/>
</svg>
