<svg width="31" height="31" viewBox="0 0 31 31" fill="none" xmlns="http://www.w3.org/2000/svg">
<path fill-rule="evenodd" clip-rule="evenodd" d="M15.1117 2.74414C18.1177 2.74414 21.0007 3.93829 23.1263 6.06389C25.2519 8.18949 26.446 11.0724 26.446 14.0785C26.446 17.9498 24.3353 21.1184 22.1113 23.3915C21.0001 24.515 19.7876 25.5335 18.4893 26.4342L17.9528 26.7994L17.7009 26.9669L17.2262 27.2691L16.803 27.5273L16.2791 27.8321C15.9235 28.035 15.5211 28.1418 15.1117 28.1418C14.7022 28.1418 14.2998 28.035 13.9442 27.8321L13.4203 27.5273L12.7655 27.1243L12.5237 26.9669L12.0073 26.6231C10.6067 25.6754 9.30208 24.5931 8.1121 23.3915C5.88805 21.1171 3.77734 17.9498 3.77734 14.0785C3.77734 11.0724 4.97149 8.18949 7.09709 6.06389C9.22269 3.93829 12.1056 2.74414 15.1117 2.74414ZM15.1117 5.26288C12.7736 5.26288 10.5314 6.19167 8.87811 7.84491C7.22487 9.49816 6.29609 11.7404 6.29609 14.0785C6.29609 17.0027 7.89801 19.5693 9.91174 21.6297C10.7776 22.5062 11.7135 23.3106 12.7101 24.0351L13.2869 24.4456C13.4732 24.5758 13.6525 24.6967 13.8246 24.8083L14.3158 25.1232L14.7477 25.3864L15.1117 25.5992L15.6847 25.2604L16.1469 24.9708C16.3929 24.8146 16.6561 24.6396 16.9365 24.4456L17.5133 24.0351C18.5099 23.3106 19.4458 22.5062 20.3116 21.6297C22.3254 19.5706 23.9273 17.0027 23.9273 14.0785C23.9273 11.7404 22.9985 9.49816 21.3452 7.84491C19.692 6.19167 17.4497 5.26288 15.1117 5.26288ZM15.1117 9.04099C16.4477 9.04099 17.729 9.57173 18.6737 10.5164C19.6184 11.4612 20.1492 12.7425 20.1492 14.0785C20.1492 15.4145 19.6184 16.6958 18.6737 17.6405C17.729 18.5852 16.4477 19.116 15.1117 19.116C13.7757 19.116 12.4944 18.5852 11.5496 17.6405C10.6049 16.6958 10.0742 15.4145 10.0742 14.0785C10.0742 12.7425 10.6049 11.4612 11.5496 10.5164C12.4944 9.57173 13.7757 9.04099 15.1117 9.04099ZM15.1117 11.5597C14.4437 11.5597 13.803 11.8251 13.3307 12.2975C12.8583 12.7698 12.5929 13.4105 12.5929 14.0785C12.5929 14.7465 12.8583 15.3871 13.3307 15.8595C13.803 16.3319 14.4437 16.5972 15.1117 16.5972C15.7797 16.5972 16.4203 16.3319 16.8927 15.8595C17.3651 15.3871 17.6304 14.7465 17.6304 14.0785C17.6304 13.4105 17.3651 12.7698 16.8927 12.2975C16.4203 11.8251 15.7797 11.5597 15.1117 11.5597Z" fill="#6158FF"/>
</svg>
