<svg width="30" height="30" viewBox="0 0 30 30" fill="none" xmlns="http://www.w3.org/2000/svg">
<circle cx="15" cy="15" r="15" fill="#E4E2FF"/>
<path d="M10.75 8.5C10.1533 8.5 9.58097 8.73705 9.15901 9.15901C8.73705 9.58097 8.5 10.1533 8.5 10.75V19.25C8.5 19.8467 8.73705 20.419 9.15901 20.841C9.58097 21.2629 10.1533 21.5 10.75 21.5H15.1715C15.467 21.5 15.7596 21.4418 16.0325 21.3287C16.3055 21.2157 16.5536 21.0499 16.7625 20.841L20.841 16.7625C21.0499 16.5536 21.2157 16.3055 21.3287 16.0325C21.4418 15.7596 21.5 15.467 21.5 15.1715V10.75C21.5 10.1533 21.2629 9.58097 20.841 9.15901C20.419 8.73705 19.8467 8.5 19.25 8.5H10.75ZM9 10.75C9 10.2859 9.18437 9.84075 9.51256 9.51256C9.84075 9.18437 10.2859 9 10.75 9H19.25C19.7141 9 20.1592 9.18437 20.4874 9.51256C20.8156 9.84075 21 10.2859 21 10.75V15.1715C21 15.2828 20.9897 15.3923 20.969 15.5H17.75C17.1533 15.5 16.581 15.7371 16.159 16.159C15.7371 16.581 15.5 17.1533 15.5 17.75V20.969C15.3917 20.9897 15.2817 21 15.1715 21H10.75C10.2859 21 9.84075 20.8156 9.51256 20.4874C9.18437 20.1592 9 19.7141 9 19.25V10.75ZM16 20.7915V17.75C16 17.2859 16.1844 16.8408 16.5126 16.5126C16.8408 16.1844 17.2859 16 17.75 16H20.7915C20.7107 16.1504 20.6082 16.2882 20.4875 16.409L16.409 20.4875C16.2882 20.6082 16.1504 20.7107 16 20.7915Z" fill="#8780FF"/>
</svg>
