<svg width="31" height="31" viewBox="0 0 31 31" fill="none" xmlns="http://www.w3.org/2000/svg">
<path d="M10.0754 5.48749V2.96875M20.1503 5.48749V2.96875M15.1129 28.1562C10.0666 28.1562 7.54404 28.1562 5.97612 26.4963C4.4082 24.8365 4.4082 22.1641 4.4082 16.8218C4.4082 11.4796 4.4082 8.80719 5.97612 7.14734C7.54404 5.48749 10.0666 5.48749 15.1129 5.48749C20.1592 5.48749 22.6817 5.48749 24.2496 7.14734C25.8175 8.80719 25.8175 11.4796 25.8175 16.8218C25.8175 22.1641 25.8175 24.8365 24.2496 26.4963C22.6817 28.1562 20.1592 28.1562 15.1129 28.1562Z" stroke="#6158FF" stroke-width="1.88906" stroke-linecap="round" stroke-linejoin="round"/>
<path d="M17.6529 12.4055C17.6529 13.0735 17.3875 13.7141 16.9152 14.1865C16.4428 14.6588 15.8022 14.9242 15.1342 14.9242C14.4661 14.9242 13.8255 14.6588 13.3531 14.1865C12.8808 13.7141 12.6154 13.0735 12.6154 12.4055C12.6154 11.7374 12.8808 11.0968 13.3531 10.6244C13.8255 10.1521 14.4661 9.88672 15.1342 9.88672C15.8022 9.88672 16.4428 10.1521 16.9152 10.6244C17.3875 11.0968 17.6529 11.7374 17.6529 12.4055ZM10.1533 21.5019C11.4858 19.4491 13.6028 18.6809 15.1342 18.6822C16.6655 18.6834 18.7208 19.4504 20.0533 21.5032C20.1389 21.6354 20.1628 21.7978 20.0847 21.9364C19.7737 22.4892 18.8052 23.5862 18.1075 23.6605C17.304 23.7448 15.2022 23.7574 15.1354 23.7574C15.0687 23.7574 12.9038 23.7448 12.1003 23.6605C11.4001 23.5849 10.4329 22.4892 10.1206 21.9351C10.0438 21.7978 10.0677 21.6354 10.1533 21.5019Z" stroke="#6158FF" stroke-width="1.88906" stroke-linecap="round" stroke-linejoin="round"/>
</svg>
