<svg width="30" height="30" viewBox="0 0 30 30" fill="none" xmlns="http://www.w3.org/2000/svg">
<circle cx="15" cy="15" r="15" fill="#E4E2FF"/>
<path d="M10.3333 10.3334H19C19.5304 10.3334 20.0391 10.5441 20.4142 10.9192C20.7893 11.2942 21 11.8029 21 12.3334V18.3334C21 18.8638 20.7893 19.3725 20.4142 19.7476C20.0391 20.1227 19.5304 20.3334 19 20.3334H10.3333C9.80288 20.3334 9.29417 20.1227 8.9191 19.7476C8.54403 19.3725 8.33331 18.8638 8.33331 18.3334V12.3334C8.33331 11.8029 8.54403 11.2942 8.9191 10.9192C9.29417 10.5441 9.80288 10.3334 10.3333 10.3334ZM10.3333 11C9.99998 11 9.70665 11.1134 9.47998 11.3134L14.6666 14.6667L19.8533 11.3134C19.6266 11.1134 19.3333 11 19 11H10.3333ZM14.6666 15.4734L9.08665 11.8534C9.03331 12 8.99998 12.1667 8.99998 12.3334V18.3334C8.99998 18.687 9.14046 19.0261 9.3905 19.2762C9.64055 19.5262 9.97969 19.6667 10.3333 19.6667H19C19.3536 19.6667 19.6927 19.5262 19.9428 19.2762C20.1928 19.0261 20.3333 18.687 20.3333 18.3334V12.3334C20.3333 12.1667 20.3 12 20.2466 11.8534L14.6666 15.4734Z" fill="#8780FF"/>
</svg>
