<svg width="30" height="30" viewBox="0 0 30 30" fill="none" xmlns="http://www.w3.org/2000/svg">
<circle cx="15" cy="15" r="15" fill="#E4E2FF"/>
<path d="M15.3333 14.8613V12C15.3333 11.9053 15.3013 11.8262 15.2373 11.7627C15.1733 11.6991 15.094 11.6671 14.9993 11.6667C14.9047 11.6662 14.8256 11.6982 14.762 11.7627C14.6984 11.8271 14.6667 11.9062 14.6667 12V14.9193C14.6667 14.9873 14.6791 15.0533 14.704 15.1173C14.7289 15.1809 14.7702 15.2418 14.828 15.3L17.1947 17.6667C17.2569 17.7289 17.3336 17.7622 17.4247 17.7667C17.5158 17.7711 17.5964 17.7378 17.6667 17.6667C17.7369 17.5956 17.7724 17.5169 17.7733 17.4307C17.7742 17.3444 17.7387 17.2658 17.6667 17.1947L15.3333 14.8613ZM15.002 21C14.1727 21 13.3927 20.8427 12.662 20.528C11.9318 20.2129 11.2964 19.7853 10.756 19.2453C10.2156 18.7053 9.78778 18.0707 9.47267 17.3413C9.15756 16.612 9 15.8322 9 15.002C9 14.1718 9.15756 13.3918 9.47267 12.662C9.78733 11.9318 10.2142 11.2964 10.7533 10.756C11.2924 10.2156 11.9273 9.78778 12.658 9.47267C13.3887 9.15756 14.1687 9 14.998 9C15.8273 9 16.6073 9.15756 17.338 9.47267C18.0682 9.78733 18.7036 10.2144 19.244 10.754C19.7844 11.2936 20.2122 11.9284 20.5273 12.6587C20.8424 13.3889 21 14.1687 21 14.998C21 15.8273 20.8427 16.6073 20.528 17.338C20.2133 18.0687 19.7858 18.704 19.2453 19.244C18.7049 19.784 18.0702 20.2118 17.3413 20.5273C16.6124 20.8429 15.8327 21.0004 15.002 21ZM15 20.3333C16.4778 20.3333 17.7362 19.814 18.7753 18.7753C19.8144 17.7367 20.3338 16.4782 20.3333 15C20.3329 13.5218 19.8136 12.2633 18.7753 11.2247C17.7371 10.186 16.4787 9.66667 15 9.66667C13.5213 9.66667 12.2629 10.1862 11.2247 11.2253C10.1864 12.2644 9.66711 13.5227 9.66667 15C9.66622 16.4773 10.1858 17.7358 11.2253 18.7753C12.2649 19.8149 13.5231 20.3342 15 20.3333Z" fill="#8780FF"/>
</svg>
