<svg width="30" height="30" viewBox="0 0 30 30" fill="none" xmlns="http://www.w3.org/2000/svg">
<circle cx="15" cy="15" r="15" fill="#E4E2FF"/>
<path d="M10.714 12.2581C10.523 11.0001 11.41 9.87006 12.765 9.45606C13.0054 9.38304 13.2647 9.40419 13.4901 9.51524C13.7155 9.62629 13.8903 9.81891 13.979 10.0541L14.414 11.2141C14.484 11.4007 14.4967 11.604 14.4503 11.7978C14.404 11.9917 14.3008 12.1673 14.154 12.3021L12.86 13.4871C12.7961 13.5455 12.7485 13.6196 12.7219 13.702C12.6952 13.7844 12.6904 13.8723 12.708 13.9571L12.72 14.0091L12.751 14.1391C12.9123 14.7706 13.1575 15.3776 13.48 15.9441C13.8321 16.5455 14.2685 17.0934 14.776 17.5711L14.816 17.6071C14.8806 17.6644 14.9589 17.704 15.0434 17.7221C15.1279 17.7401 15.2156 17.736 15.298 17.7101L16.971 17.1831C17.1611 17.1234 17.3647 17.1218 17.5557 17.1787C17.7468 17.2355 17.9164 17.3481 18.043 17.5021L18.835 18.4631C19.165 18.8631 19.125 19.4511 18.746 19.8041C17.709 20.7711 16.283 20.9691 15.291 20.1721C14.0745 19.1917 13.0493 17.9954 12.267 16.6431C11.477 15.2925 10.9507 13.8047 10.714 12.2581ZM13.756 14.0231L14.828 13.0391C15.1218 12.7696 15.3284 12.4185 15.4212 12.0307C15.5141 11.643 15.4889 11.2364 15.349 10.8631L14.915 9.70306C14.7369 9.22983 14.3854 8.84212 13.9319 8.61868C13.4783 8.39524 12.9567 8.35283 12.473 8.50006C10.79 9.01506 9.43898 10.5241 9.72498 12.4091C9.92498 13.7251 10.386 15.3991 11.403 17.1471C12.2471 18.6052 13.3529 19.8951 14.665 20.9521C16.153 22.1471 18.139 21.7391 19.429 20.5371C19.7981 20.1934 20.0221 19.7218 20.0554 19.2185C20.0887 18.7153 19.9286 18.2183 19.608 17.8291L18.816 16.8671C18.5626 16.5595 18.2232 16.3347 17.8412 16.2214C17.4592 16.1081 17.052 16.1114 16.672 16.2311L15.283 16.6681C14.9243 16.2983 14.6102 15.8879 14.347 15.4451C14.093 14.9973 13.8948 14.52 13.757 14.0241" fill="#8780FF"/>
</svg>
