<svg width="31" height="31" viewBox="0 0 31 31" fill="none" xmlns="http://www.w3.org/2000/svg">
<path d="M27.7057 21.5341V25.3122C27.7071 25.6629 27.6353 26.0101 27.4948 26.3315C27.3543 26.6528 27.1482 26.9413 26.8897 27.1784C26.6313 27.4155 26.3261 27.596 25.9939 27.7084C25.6616 27.8208 25.3096 27.8625 24.9603 27.8309C21.0851 27.4094 17.3627 26.0852 14.0919 23.9647C11.049 22.0311 8.46923 19.4513 6.53567 16.4084C4.40773 13.1228 3.08325 9.38229 2.6694 5.48969C2.63793 5.14143 2.67932 4.79044 2.79093 4.45905C2.90254 4.12767 3.08193 3.82315 3.31768 3.5649C3.55343 3.30664 3.84037 3.1003 4.16023 2.95901C4.4801 2.81773 4.82587 2.74459 5.17555 2.74426H8.95366C9.56484 2.73825 10.1574 2.95468 10.6208 3.35321C11.0842 3.75174 11.3869 4.30519 11.4724 4.91038C11.6314 6.11954 11.9272 7.30675 12.354 8.44921C12.5234 8.89997 12.5601 9.38985 12.4596 9.86082C12.3592 10.3318 12.1258 10.7641 11.7872 11.1065L10.1878 12.7059C11.9806 15.8588 14.5912 18.4693 17.7441 20.2621L19.3435 18.6627C19.6859 18.3241 20.1182 18.0908 20.5891 17.9903C21.0601 17.8899 21.55 17.9266 22.0007 18.096C23.1432 18.5228 24.3304 18.8185 25.5396 18.9776C26.1513 19.0639 26.71 19.372 27.1094 19.8434C27.5088 20.3147 27.721 20.9164 27.7057 21.5341Z" stroke="#6158FF" stroke-width="2.51874" stroke-linecap="round" stroke-linejoin="round"/>
</svg>
