<svg width="31" height="31" viewBox="0 0 31 31" fill="none" xmlns="http://www.w3.org/2000/svg">
<g clip-path="url(#clip0_18_618)">
<path fill-rule="evenodd" clip-rule="evenodd" d="M13.8222 4.23092C13.8959 4.55657 13.8373 4.89816 13.6593 5.18061C13.4812 5.46306 13.1983 5.66323 12.8727 5.73713C12.6255 5.79336 12.3806 5.85889 12.1384 5.93359C11.9804 5.98238 11.8143 5.99956 11.6497 5.98416C11.485 5.96876 11.325 5.92108 11.1788 5.84384C11.0325 5.7666 10.9029 5.66131 10.7974 5.53399C10.6918 5.40666 10.6124 5.2598 10.5636 5.10177C10.5148 4.94375 10.4976 4.77767 10.513 4.613C10.5284 4.44834 10.5761 4.28832 10.6533 4.14208C10.7306 3.99584 10.8359 3.86625 10.9632 3.7607C11.0905 3.65515 11.2374 3.57572 11.3954 3.52693C11.6977 3.4329 12.0041 3.35104 12.3148 3.28135C12.4761 3.24466 12.6431 3.24013 12.8062 3.268C12.9693 3.29587 13.1253 3.3556 13.2652 3.44378C13.4052 3.53197 13.5265 3.64687 13.6221 3.78193C13.7176 3.91699 13.7856 4.06956 13.8222 4.23092ZM16.4039 4.23092C16.4778 3.90531 16.678 3.62237 16.9605 3.44431C17.2429 3.26624 17.5845 3.20763 17.9101 3.28135C23.5194 4.55332 27.708 9.56813 27.708 15.5627C27.708 22.5182 22.0686 28.1564 15.1143 28.1564C9.11848 28.1564 4.10366 23.969 2.8317 18.3598C2.76641 18.0374 2.82987 17.7022 3.00851 17.426C3.18716 17.1497 3.46679 16.9544 3.78762 16.8816C4.10845 16.8089 4.445 16.8646 4.72529 17.0368C5.00557 17.2091 5.20735 17.4841 5.28747 17.8032C5.68822 19.5584 6.55201 21.1742 7.78896 22.4824C9.02591 23.7907 10.5908 24.7435 12.3209 25.2419C14.051 25.7403 15.883 25.7659 17.6263 25.3162C19.3697 24.8664 20.9607 23.9578 22.2338 22.6847C23.5068 21.4116 24.4155 19.8206 24.8653 18.0773C25.315 16.3339 25.2893 14.5019 24.791 12.7718C24.2926 11.0417 23.3398 9.47683 22.0315 8.23987C20.7233 7.00292 19.1075 6.13914 17.3522 5.73839C17.0266 5.66422 16.7437 5.46374 16.5659 5.18104C16.3881 4.89834 16.3298 4.55657 16.4039 4.23092ZM8.33011 6.39452C8.44274 6.51578 8.53036 6.65806 8.58796 6.81321C8.64557 6.96836 8.67203 7.13335 8.66583 7.29873C8.65963 7.46411 8.62089 7.62665 8.55184 7.77706C8.48278 7.92746 8.38475 8.06278 8.26336 8.17527C8.07698 8.34738 7.89773 8.52621 7.72561 8.71176C7.49683 8.94981 7.18373 9.08849 6.8537 9.09796C6.52368 9.10743 6.20314 8.98691 5.96109 8.76237C5.71905 8.53783 5.57486 8.22721 5.55958 7.89741C5.54429 7.5676 5.65913 7.24498 5.87937 6.99902C6.09347 6.76729 6.31679 6.54354 6.54936 6.32777C6.67062 6.21514 6.8129 6.12752 6.96805 6.06992C7.1232 6.01231 7.28819 5.98585 7.45357 5.99205C7.61895 5.99825 7.78149 6.03699 7.9319 6.10605C8.0823 6.1751 8.21762 6.27313 8.33011 6.39452ZM15.1131 8.00651C15.4471 8.00651 15.7674 8.1392 16.0036 8.37538C16.2398 8.61155 16.3725 8.93188 16.3725 9.26588V15.0414L19.7816 18.4505C20.011 18.688 20.1379 19.0061 20.135 19.3363C20.1322 19.6665 19.9997 19.9824 19.7662 20.2159C19.5327 20.4494 19.2169 20.5818 18.8867 20.5847C18.5565 20.5876 18.2383 20.4606 18.0008 20.2312L14.2227 16.4531C13.9865 16.217 13.8538 15.8967 13.8537 15.5627V9.26588C13.8537 8.93188 13.9864 8.61155 14.2226 8.37538C14.4587 8.1392 14.7791 8.00651 15.1131 8.00651ZM4.65149 11.0139C4.9706 11.1123 5.23757 11.3334 5.39367 11.6286C5.54978 11.9238 5.58225 12.269 5.48393 12.5881C5.40923 12.8303 5.3437 13.0752 5.28747 13.3223C5.20735 13.6414 5.00557 13.9164 4.72529 14.0886C4.445 14.2608 4.10845 14.3166 3.78762 14.2438C3.46679 14.1711 3.18716 13.9757 3.00851 13.6995C2.82987 13.4233 2.76641 13.0881 2.8317 12.7657C2.90222 12.455 2.98408 12.1486 3.07727 11.8463C3.17568 11.5272 3.3968 11.2603 3.69201 11.1041C3.98722 10.948 4.33234 10.9156 4.65149 11.0139Z" fill="#6158FF"/>
</g>
<defs>
<clipPath id="clip0_18_618">
<rect width="30.2249" height="30.2249" fill="white" transform="translate(0 0.449219)"/>
</clipPath>
</defs>
</svg>
