<svg width="30" height="30" viewBox="0 0 30 30" fill="none" xmlns="http://www.w3.org/2000/svg">
<g clip-path="url(#clip0_597_4467)">
<path d="M13.0083 6.94995L5 15L13.0083 23.05C13.0807 23.1449 13.1725 23.2233 13.2778 23.2796C13.383 23.336 13.4991 23.3691 13.6183 23.3767C13.7374 23.3843 13.8568 23.3662 13.9683 23.3237C14.0799 23.2811 14.181 23.2151 14.2648 23.1301C14.3486 23.0451 14.4131 22.9431 14.4541 22.8309C14.495 22.7188 14.5114 22.5992 14.5021 22.4801C14.4928 22.3611 14.4581 22.2455 14.4002 22.1411C14.3423 22.0367 14.2627 21.9459 14.1667 21.875L8.175 15.8333H24.1167C24.3377 15.8333 24.5496 15.7455 24.7059 15.5892C24.8622 15.4329 24.95 15.221 24.95 15C24.95 14.7789 24.8622 14.567 24.7059 14.4107C24.5496 14.2544 24.3377 14.1666 24.1167 14.1666H8.175L14.1667 8.12495C14.3225 7.96803 14.4096 7.75564 14.4088 7.5345C14.408 7.31337 14.3194 7.1016 14.1625 6.94578C14.0056 6.78997 13.7932 6.70287 13.5721 6.70365C13.3509 6.70444 13.1391 6.79303 12.9833 6.94995H13.0083Z" fill="black"/>
</g>
<defs>
<clipPath id="clip0_597_4467">
<rect width="30" height="30" fill="white" transform="matrix(0 -1 1 0 0 30)"/>
</clipPath>
</defs>
</svg>
