<svg width="19" height="18" viewBox="0 0 19 18" fill="none" xmlns="http://www.w3.org/2000/svg">
<path fill-rule="evenodd" clip-rule="evenodd" d="M9.54751 1.41407C10.4875 0.499169 11.7499 -0.00879255 13.0615 0.000115208C14.3732 0.00902296 15.6286 0.534084 16.556 1.46166C17.4835 2.38924 18.0083 3.64472 18.0171 4.95639C18.0258 6.26805 17.5176 7.53039 16.6026 8.4702L16.5908 8.48093L14.1604 10.9113C13.6546 11.4173 13.0459 11.8086 12.3756 12.0586C11.7052 12.3087 10.989 12.4117 10.2754 12.3606C9.56176 12.3095 8.86747 12.1055 8.23961 11.7625C7.61175 11.4195 7.06499 10.9455 6.63642 10.3727C6.55944 10.2742 6.50289 10.1614 6.47009 10.0408C6.43729 9.92015 6.4289 9.79422 6.44541 9.67033C6.46192 9.54644 6.50299 9.4271 6.56623 9.31929C6.62947 9.21149 6.7136 9.1174 6.81368 9.04253C6.91376 8.96767 7.02778 8.91354 7.14905 8.88332C7.27033 8.8531 7.39642 8.8474 7.51992 8.86655C7.64343 8.8857 7.76187 8.92932 7.8683 8.99484C7.97473 9.06037 8.067 9.14648 8.13971 9.24814C8.40699 9.60557 8.74804 9.90133 9.1397 10.1153C9.53136 10.3293 9.96448 10.4566 10.4097 10.4884C10.8548 10.5203 11.3017 10.456 11.7198 10.3C12.1379 10.1439 12.5176 9.89972 12.8331 9.58399L15.257 7.15898C15.8225 6.57179 16.1349 5.78615 16.1272 4.971C16.1195 4.15584 15.7922 3.37627 15.2157 2.79992C14.6392 2.22356 13.8595 1.89644 13.0444 1.88891C12.2292 1.88138 11.4436 2.19402 10.8566 2.75963L9.46811 4.14059C9.29015 4.30856 9.05364 4.4004 8.80897 4.39657C8.56429 4.39274 8.33078 4.29354 8.15816 4.12008C7.98555 3.94663 7.88748 3.71264 7.88483 3.46795C7.88219 3.22325 7.97518 2.9872 8.14401 2.81006L9.54751 1.41407ZM5.64174 5.94218C6.65186 5.5653 7.75687 5.52575 8.79135 5.82944C9.82583 6.13313 10.7341 6.76372 11.3802 7.62681C11.4542 7.72552 11.508 7.83783 11.5386 7.95734C11.5691 8.07684 11.5759 8.2012 11.5584 8.32331C11.5409 8.44541 11.4995 8.56288 11.4367 8.669C11.3738 8.77512 11.2906 8.86782 11.1919 8.94179C11.0932 9.01577 10.9809 9.06958 10.8614 9.10015C10.7419 9.13073 10.6175 9.13746 10.4954 9.11998C10.3733 9.10249 10.2558 9.06112 10.1497 8.99824C10.0436 8.93536 9.9509 8.85219 9.87692 8.75348C9.60972 8.39615 9.26879 8.10046 8.87727 7.88647C8.48575 7.67247 8.05278 7.54518 7.60774 7.51323C7.1627 7.48127 6.71599 7.5454 6.29791 7.70126C5.87982 7.85712 5.50015 8.10106 5.18464 8.41655L2.75963 10.8416C2.19953 11.4297 1.89154 12.2134 1.90145 13.0255C1.91135 13.8376 2.23835 14.6136 2.81262 15.1879C3.38689 15.7622 4.16293 16.0892 4.97501 16.0991C5.7871 16.109 6.57087 15.801 7.15898 15.2409L8.53888 13.8621C8.62603 13.7749 8.72951 13.7057 8.8434 13.6584C8.9573 13.6112 9.07939 13.5869 9.20269 13.5868C9.32599 13.5868 9.4481 13.611 9.56203 13.6581C9.67597 13.7053 9.77951 13.7744 9.86673 13.8616C9.95395 13.9487 10.0232 14.0522 10.0704 14.1661C10.1176 14.28 10.142 14.4021 10.142 14.5254C10.1421 14.6487 10.1178 14.7708 10.0707 14.8847C10.0235 14.9987 9.95442 15.1022 9.86727 15.1894L8.48093 16.5747L8.4702 16.5854C7.53039 17.5004 6.26805 18.0086 4.95639 17.9999C3.64472 17.9912 2.38924 17.4663 1.46166 16.5389C0.534084 15.6114 0.00902296 14.356 0.000115208 13.0444C-0.00879254 11.7327 0.49917 10.4703 1.41407 9.53034L1.42587 9.51961L3.85624 7.08923C4.36185 6.58301 4.97042 6.19145 5.64067 5.94111" fill="#6158FF"/>
</svg>
