<svg width="32" height="32" viewBox="0 0 32 32" fill="none" xmlns="http://www.w3.org/2000/svg">
<path d="M30 16C30 8.26801 23.732 2 16 2C8.26801 2 2 8.26801 2 16C2 23.732 8.26801 30 16 30C23.732 30 30 23.732 30 16Z" fill="#1275B1"/>
<path d="M12.6186 9.69215C12.6186 10.6267 11.8085 11.3843 10.8093 11.3843C9.81004 11.3843 9 10.6267 9 9.69215C9 8.7576 9.81004 8 10.8093 8C11.8085 8 12.6186 8.7576 12.6186 9.69215Z" fill="white"/>
<path d="M9.24609 12.6281H12.3389V22H9.24609V12.6281Z" fill="white"/>
<path d="M17.3194 12.6281H14.2266V22H17.3194C17.3194 22 17.3194 19.0496 17.3194 17.2049C17.3194 16.0976 17.6975 14.9855 19.206 14.9855C20.9108 14.9855 20.9006 16.4345 20.8926 17.5571C20.8822 19.0244 20.907 20.5219 20.907 22H23.9998V17.0537C23.9736 13.8954 23.1506 12.4401 20.4431 12.4401C18.8352 12.4401 17.8385 13.1701 17.3194 13.8305V12.6281Z" fill="white"/>
</svg>
