<svg width="20" height="20" viewBox="0 0 20 20" fill="none" xmlns="http://www.w3.org/2000/svg">
<path d="M7.08333 15H16.1542C16.2819 15 16.3994 14.9467 16.5067 14.84C16.6139 14.7334 16.6672 14.6156 16.6667 14.4867V12.3542H7.08333V15ZM3.33333 7.64585H6.25V5.00002H3.84667C3.71833 5.00002 3.60056 5.05335 3.49333 5.16002C3.38611 5.26669 3.33278 5.38446 3.33333 5.51335V7.64585ZM3.33333 11.5417H6.25V8.47919H3.33333V11.5417ZM3.84667 15H6.25V12.3542H3.33333V14.4875C3.33333 14.6153 3.38667 14.7328 3.49333 14.84C3.6 14.9472 3.7175 15.0006 3.84583 15M7.08333 11.5417H16.6667V8.47919H7.08333V11.5417ZM7.08333 7.64585H16.6667V5.51252C16.6667 5.38474 16.6133 5.26724 16.5067 5.16002C16.4 5.0528 16.2825 4.99946 16.1542 5.00002H7.08333V7.64585ZM3.84667 15.8334C3.46278 15.8334 3.1425 15.705 2.88583 15.4484C2.62917 15.1917 2.50056 14.8711 2.5 14.4867V5.51335C2.5 5.12946 2.62861 4.80919 2.88583 4.55252C3.14306 4.29585 3.46306 4.16724 3.84583 4.16669H16.1542C16.5375 4.16669 16.8575 4.2953 17.1142 4.55252C17.3708 4.80974 17.4994 5.13002 17.5 5.51335V14.4875C17.5 14.8709 17.3714 15.1911 17.1142 15.4484C16.8569 15.7056 16.5369 15.8339 16.1542 15.8334H3.84667Z" fill="#8780FF"/>
</svg>
