<svg width="16" height="16" viewBox="0 0 16 16" fill="none" xmlns="http://www.w3.org/2000/svg">
<path d="M8.37331 13.88C8.26451 13.9581 8.13393 14.0002 7.99998 14.0002C7.86602 14.0002 7.73544 13.9581 7.62664 13.88C4.40731 11.5853 0.990642 6.86533 4.44464 3.45467C5.39287 2.5219 6.66987 1.99942 7.99998 2C9.33331 2 10.6126 2.52333 11.5553 3.454C15.0093 6.86467 11.5926 11.584 8.37331 13.88Z" stroke="#6B7280" stroke-width="1.5" stroke-linecap="round" stroke-linejoin="round"/>
<path d="M7.99996 8.00004C8.35358 8.00004 8.69272 7.85956 8.94277 7.60952C9.19282 7.35947 9.33329 7.02033 9.33329 6.66671C9.33329 6.31309 9.19282 5.97395 8.94277 5.7239C8.69272 5.47385 8.35358 5.33337 7.99996 5.33337C7.64634 5.33337 7.3072 5.47385 7.05715 5.7239C6.8071 5.97395 6.66663 6.31309 6.66663 6.66671C6.66663 7.02033 6.8071 7.35947 7.05715 7.60952C7.3072 7.85956 7.64634 8.00004 7.99996 8.00004Z" stroke="#6B7280" stroke-width="1.5" stroke-linecap="round" stroke-linejoin="round"/>
</svg>
