<svg width="329" height="86" viewBox="0 0 329 86" fill="none" xmlns="http://www.w3.org/2000/svg">
<path d="M120.614 19.734V60H113.903V26.445H100.481C91.5327 26.445 87.0587 30.919 87.0587 39.867C87.0587 48.815 91.5327 53.289 100.481 53.289H107.192V60H100.481C87.0587 60 80.3477 53.289 80.3477 39.867C80.3477 26.445 87.0587 19.734 100.481 19.734H120.614ZM147.458 39.867C156.406 39.867 160.88 37.63 160.88 33.156C160.88 28.682 156.406 26.445 147.458 26.445H127.325V19.734H147.458C160.88 19.734 167.591 24.208 167.591 33.156C167.591 37.63 165.913 40.9855 162.557 43.2225C165.913 45.4595 167.591 48.815 167.591 53.289V60H160.88V53.289C160.88 48.815 156.406 46.578 147.458 46.578H127.325V39.867H147.458ZM182.791 19.734L194.468 49.4637L206.38 19.734H214.567L197.79 60H191.079L174.302 19.734H182.791ZM227.989 19.734V60H221.278V19.734H227.989ZM234.7 39.867C234.7 26.445 241.411 19.734 254.833 19.734C268.255 19.734 274.966 26.445 274.966 39.867C274.966 53.289 268.255 60 254.833 60C241.411 60 234.7 53.289 234.7 39.867ZM241.411 39.867C241.411 48.815 245.885 53.289 254.833 53.289C263.781 53.289 268.255 48.815 268.255 39.867C268.255 30.919 263.781 26.445 254.833 26.445C245.885 26.445 241.411 30.919 241.411 39.867ZM288.388 39.867V60H281.677V39.867C281.677 26.445 288.388 19.734 301.81 19.734C315.232 19.734 321.943 26.445 321.943 39.867V60H315.232V39.867C315.232 30.919 310.758 26.445 301.81 26.445C292.862 26.445 288.388 30.919 288.388 39.867Z" fill="#6158FF"/>
<path d="M254.768 47.7468C259.314 47.7468 263 44.061 263 39.5144C263 34.9678 259.314 31.282 254.768 31.282C250.221 31.282 246.535 34.9678 246.535 39.5144C246.535 44.061 250.221 47.7468 254.768 47.7468Z" fill="#6158FF"/>
<path fill-rule="evenodd" clip-rule="evenodd" d="M52.3984 19V41.5008C52.3984 56.3557 59.7538 63.8553 74.4646 63.9994L71.5559 56.2908C63.7844 55.2465 59.8987 50.3165 59.8987 41.5008V19H52.3984Z" fill="#6158FF"/>
<path d="M6.72271 39.867C6.72271 48.815 11.1967 53.289 20.1447 53.289H40.2777V60H20.1447C6.72271 60 0.0117188 53.289 0.0117188 39.867C0.0117188 26.445 6.72271 19.734 20.1447 19.734H40.2777V26.445H20.1447C11.1967 26.445 6.72271 30.919 6.72271 39.867Z" fill="#6158FF"/>
</svg>
