<svg width="178" height="22" viewBox="0 0 178 22" fill="none" xmlns="http://www.w3.org/2000/svg">
<g clip-path="url(#clip0_82_630)">
<path d="M65.2691 0.525146V22.3149H61.6375V4.15677H54.3743C49.5318 4.15677 47.1108 6.57785 47.1108 11.42C47.1108 16.2622 49.5318 18.6833 54.3743 18.6833H58.0059V22.3149H54.3743C47.1108 22.3149 43.4791 18.6833 43.4791 11.42C43.4791 4.15677 47.1108 0.525146 54.3743 0.525146H65.2691ZM79.7956 11.42C84.6378 11.42 87.0589 10.2095 87.0589 7.78839C87.0589 5.36731 84.6378 4.15677 79.7956 4.15677H68.9008V0.525146H79.7956C87.0589 0.525146 90.6905 2.94623 90.6905 7.78839C90.6905 10.2095 89.7825 12.0253 87.9664 13.2358C89.7825 14.4464 90.6905 16.2622 90.6905 18.6833V22.3149H87.0589V18.6833C87.0589 16.2622 84.6378 15.0516 79.7956 15.0516H68.9008V11.42H79.7956ZM98.9159 0.525146L105.235 16.6132L111.681 0.525146H116.111L107.033 22.3149H103.401L94.3221 0.525146H98.9159ZM123.375 0.525146V22.3149H119.743V0.525146H123.375ZM127.006 11.42C127.006 4.15677 130.638 0.525146 137.901 0.525146C145.164 0.525146 148.796 4.15677 148.796 11.42C148.796 18.6833 145.164 22.3149 137.901 22.3149C130.638 22.3149 127.006 18.6833 127.006 11.42ZM130.638 11.42C130.638 16.2622 133.059 18.6833 137.901 18.6833C142.743 18.6833 145.164 16.2622 145.164 11.42C145.164 6.57785 142.743 4.15677 137.901 4.15677C133.059 4.15677 130.638 6.57785 130.638 11.42ZM156.059 11.42V22.3149H152.428V11.42C152.428 4.15677 156.059 0.525146 163.322 0.525146C170.586 0.525146 174.217 4.15677 174.217 11.42V22.3149H170.586V11.42C170.586 6.57785 168.165 4.15677 163.322 4.15677C158.48 4.15677 156.059 6.57785 156.059 11.42Z" fill="#6158FF"/>
<path d="M137.866 15.684C140.327 15.684 142.321 13.6895 142.321 11.2291C142.321 8.76871 140.327 6.77417 137.866 6.77417C135.406 6.77417 133.411 8.76871 133.411 11.2291C133.411 13.6895 135.406 15.684 137.866 15.684Z" fill="#6158FF"/>
<path fill-rule="evenodd" clip-rule="evenodd" d="M28.3557 0.12793V12.3041C28.3557 20.3428 32.3361 24.4012 40.2967 24.4791L38.7227 20.3077C34.5172 19.7425 32.4145 17.0747 32.4145 12.3041V0.12793H28.3557Z" fill="#6158FF"/>
<path d="M3.63785 11.42C3.63785 16.2622 6.05893 18.6833 10.9011 18.6833H21.796V22.3149H10.9011C3.63785 22.3149 0.00622559 18.6833 0.00622559 11.42C0.00622559 4.15677 3.63785 0.525146 10.9011 0.525146H21.796V4.15677H10.9011C6.05893 4.15677 3.63785 6.57785 3.63785 11.42Z" fill="#6158FF"/>
</g>
<defs>
<clipPath id="clip0_82_630">
<rect width="177.692" height="22" fill="white"/>
</clipPath>
</defs>
</svg>
