<svg width="28" height="29" viewBox="0 0 28 29" fill="none" xmlns="http://www.w3.org/2000/svg">
<path d="M12.8888 4.52146C12.4338 3.61205 11.4829 2.87646 10.3151 3.00655C9.27034 3.12263 7.71926 3.51113 6.66168 4.78513C5.57609 6.09355 5.17126 8.13404 6.00484 11.1913C6.89501 14.4527 8.21684 17.668 9.86009 20.2621C11.4911 22.8375 13.5001 24.899 15.8048 25.6895C17.843 26.3883 19.4017 26.0966 20.5386 25.329C21.6353 24.5887 22.2373 23.4751 22.5488 22.704C22.8976 21.8406 22.6678 20.9417 22.2128 20.279L20.5345 17.8384C20.1638 17.2991 19.63 16.8927 19.0115 16.6789C18.3929 16.465 17.7222 16.455 17.0975 16.6501L14.7782 17.3752C14.7049 17.4002 14.6259 17.4031 14.551 17.3837C14.476 17.3644 14.4084 17.3235 14.3564 17.2661C13.3239 16.0569 12.1672 14.3705 11.8528 12.6636C11.8427 12.6181 11.8495 12.5704 11.872 12.5295C12.2133 11.956 12.8007 11.3062 13.3846 10.7375C14.3745 9.77379 14.7496 8.24196 14.0963 6.93646L12.8888 4.52146Z" fill="#6158FF"/>
</svg>
