<svg width="24" height="24" viewBox="0 0 24 24" fill="none" xmlns="http://www.w3.org/2000/svg">
<path d="M8 4V2M16 4V2M12 22C7.993 22 5.99 22 4.745 20.682C3.5 19.364 3.5 17.242 3.5 13C3.5 8.758 3.5 6.636 4.745 5.318C5.99 4 7.993 4 12 4C16.007 4 18.01 4 19.255 5.318C20.5 6.636 20.5 8.758 20.5 13C20.5 17.242 20.5 19.364 19.255 20.682C18.01 22 16.007 22 12 22Z" stroke="white" stroke-width="1.5" stroke-linecap="round" stroke-linejoin="round"/>
<path d="M14.018 9.493C14.018 10.0234 13.8073 10.5321 13.4322 10.9072C13.0572 11.2823 12.5484 11.493 12.018 11.493C11.4876 11.493 10.9789 11.2823 10.6038 10.9072C10.2287 10.5321 10.018 10.0234 10.018 9.493C10.018 8.96257 10.2287 8.45386 10.6038 8.07879C10.9789 7.70371 11.4876 7.493 12.018 7.493C12.5484 7.493 13.0572 7.70371 13.4322 8.07879C13.8073 8.45386 14.018 8.96257 14.018 9.493ZM8.06301 16.716C9.12101 15.086 10.802 14.476 12.018 14.477C13.234 14.478 14.866 15.087 15.924 16.717C15.992 16.822 16.011 16.951 15.949 17.061C15.702 17.5 14.933 18.371 14.379 18.43C13.741 18.497 12.072 18.507 12.019 18.507C11.966 18.507 10.247 18.497 9.60901 18.43C9.05301 18.37 8.28501 17.5 8.03701 17.06C7.97601 16.951 7.99501 16.822 8.06301 16.716Z" stroke="white" stroke-width="1.5" stroke-linecap="round" stroke-linejoin="round"/>
</svg>
