<svg width="29" height="29" viewBox="0 0 29 29" fill="none" xmlns="http://www.w3.org/2000/svg">
<path fill-rule="evenodd" clip-rule="evenodd" d="M16.9094 6.13504C17.4383 6.29837 17.9438 6.50837 18.4261 6.76504L20.5646 5.48171C20.7875 5.34796 21.0488 5.29254 21.3069 5.32425C21.565 5.35595 21.8051 5.47297 21.9891 5.65671L23.1767 6.84437C23.3605 7.02836 23.4775 7.26845 23.5092 7.52653C23.5409 7.78461 23.4855 8.04589 23.3517 8.26887L22.0684 10.4074C22.3251 10.8896 22.5351 11.3952 22.6984 11.924L25.1169 12.5295C25.3692 12.5927 25.5931 12.7384 25.7531 12.9435C25.9131 13.1485 26 13.4011 26.0001 13.6612V15.3389C26 15.599 25.9131 15.8516 25.7531 16.0566C25.5931 16.2617 25.3692 16.4073 25.1169 16.4705L22.6984 17.076C22.5351 17.6049 22.3251 18.1105 22.0684 18.5927L23.3517 20.7312C23.4855 20.9542 23.5409 21.2155 23.5092 21.4736C23.4775 21.7316 23.3605 21.9717 23.1767 22.1557L21.9891 23.3434C21.8051 23.5271 21.565 23.6441 21.3069 23.6758C21.0488 23.7075 20.7875 23.6521 20.5646 23.5184L18.4261 22.235C17.9438 22.4917 17.4383 22.7017 16.9094 22.865L16.3039 25.2835C16.2407 25.5358 16.095 25.7598 15.89 25.9198C15.6849 26.0798 15.4323 26.1667 15.1722 26.1667H13.4946C13.2345 26.1667 12.9818 26.0798 12.7768 25.9198C12.5718 25.7598 12.4261 25.5358 12.3629 25.2835L11.7574 22.865C11.2332 22.7031 10.7254 22.4921 10.2407 22.235L8.10222 23.5184C7.87923 23.6521 7.61796 23.7075 7.35987 23.6758C7.10179 23.6441 6.8617 23.5271 6.67772 23.3434L5.49005 22.1557C5.30631 21.9717 5.1893 21.7316 5.15759 21.4736C5.12589 21.2155 5.18131 20.9542 5.31505 20.7312L6.59838 18.5927C6.3413 18.108 6.13037 17.6002 5.96838 17.076L3.54988 16.4705C3.29779 16.4074 3.074 16.2619 2.91401 16.0571C2.75402 15.8523 2.66698 15.5999 2.66672 15.34V13.6624C2.66672 13.4023 2.75364 13.1497 2.91365 12.9446C3.07366 12.7396 3.2976 12.5939 3.54988 12.5307L5.96838 11.9252C6.13172 11.3963 6.34172 10.8908 6.59838 10.4085L5.31505 8.27004C5.18131 8.04705 5.12589 7.78578 5.15759 7.5277C5.1893 7.26962 5.30631 7.02953 5.49005 6.84554L6.67772 5.65671C6.8617 5.47297 7.10179 5.35595 7.35987 5.32425C7.61796 5.29254 7.87923 5.34796 8.10222 5.48171L10.2407 6.76504C10.7229 6.50837 11.2285 6.29837 11.7574 6.13504L12.3629 3.71654C12.426 3.46445 12.5716 3.24066 12.7763 3.08066C12.9811 2.92067 13.2335 2.83364 13.4934 2.83337H15.1711C15.4311 2.83338 15.6838 2.92029 15.8888 3.08031C16.0938 3.24032 16.2395 3.46425 16.3027 3.71654L16.9094 6.13504ZM14.3334 19.1667C15.5711 19.1667 16.758 18.675 17.6332 17.7999C18.5084 16.9247 19.0001 15.7377 19.0001 14.5C19.0001 13.2624 18.5084 12.0754 17.6332 11.2002C16.758 10.325 15.5711 9.83337 14.3334 9.83337C13.0957 9.83337 11.9087 10.325 11.0336 11.2002C10.1584 12.0754 9.66672 13.2624 9.66672 14.5C9.66672 15.7377 10.1584 16.9247 11.0336 17.7999C11.9087 18.675 13.0957 19.1667 14.3334 19.1667Z" fill="#6158FF"/>
</svg>
