<svg width="24" height="24" viewBox="0 0 24 24" fill="none" xmlns="http://www.w3.org/2000/svg">
<path d="M7.05702 2.418L8.22402 2.067C8.86331 1.87422 9.5509 1.92063 10.1585 2.19756C10.7661 2.47449 11.2522 2.96302 11.526 3.572L12.428 5.578C12.6635 6.1018 12.7291 6.68618 12.6155 7.24914C12.502 7.8121 12.2151 8.32539 11.795 8.717L10.3 10.11C10.2563 10.1507 10.2287 10.2057 10.222 10.265C10.178 10.662 10.447 11.435 11.068 12.51C11.518 13.291 11.927 13.84 12.274 14.147C12.517 14.362 12.65 14.408 12.707 14.392L14.717 13.777C15.2659 13.6091 15.8536 13.6172 16.3977 13.8001C16.9418 13.983 17.415 14.3316 17.751 14.797L19.031 16.573C19.4207 17.113 19.6012 17.776 19.539 18.439C19.4769 19.102 19.1763 19.7199 18.693 20.178L17.806 21.018C17.3358 21.4633 16.7582 21.7792 16.1296 21.935C15.501 22.0908 14.8428 22.0812 14.219 21.907C11.465 21.138 8.99602 18.814 6.78402 14.983C4.57002 11.147 3.79202 7.843 4.51002 5.07C4.67119 4.44634 4.9903 3.8747 5.43659 3.4102C5.88288 2.9457 6.4403 2.60398 7.05702 2.418ZM7.49102 3.855C7.12091 3.96631 6.78571 4.17107 6.51772 4.44957C6.24974 4.72806 6.05801 5.07088 5.96102 5.445C5.35902 7.777 6.04802 10.706 8.08402 14.233C10.118 17.755 12.307 19.816 14.624 20.463C14.9983 20.5674 15.3932 20.5731 15.7704 20.4795C16.1475 20.3859 16.494 20.1963 16.776 19.929L17.662 19.089C17.8818 18.8808 18.0186 18.5999 18.0469 18.2984C18.0752 17.997 17.9932 17.6955 17.816 17.45L16.536 15.675C16.3833 15.4632 16.168 15.3046 15.9205 15.2214C15.673 15.1381 15.4057 15.1345 15.156 15.211L13.141 15.828C11.971 16.176 10.91 15.235 9.77002 13.26C9.00002 11.93 8.64202 10.9 8.73202 10.099C8.77802 9.683 8.97202 9.299 9.27702 9.013L10.772 7.62C10.9629 7.4419 11.0932 7.20851 11.1446 6.95258C11.1961 6.69666 11.1662 6.43104 11.059 6.193L10.158 4.187C10.0335 3.91019 9.81255 3.68813 9.53636 3.56227C9.26016 3.43641 8.94761 3.41534 8.65702 3.503L7.49102 3.855Z" fill="white"/>
</svg>
