<svg width="22" height="21" viewBox="0 0 22 21" fill="none" xmlns="http://www.w3.org/2000/svg">
<path d="M13 7C12.6694 7 12.3925 6.888 12.1693 6.664C11.9461 6.44 11.8341 6.16311 11.8333 5.83333V1.16667C11.8333 0.836111 11.9453 0.559222 12.1693 0.336C12.3933 0.112778 12.6702 0.000777778 13 0H20C20.3305 0 20.6078 0.112 20.8318 0.336C21.0558 0.56 21.1674 0.836889 21.1666 1.16667V5.83333C21.1666 6.16389 21.0546 6.44117 20.8306 6.66517C20.6066 6.88917 20.3297 7.00078 20 7H13ZM1.33329 11.6667C1.00274 11.6667 0.725848 11.5547 0.502626 11.3307C0.279404 11.1067 0.167404 10.8298 0.166626 10.5V1.16667C0.166626 0.836111 0.278626 0.559222 0.502626 0.336C0.726626 0.112778 1.00351 0.000777778 1.33329 0H8.33329C8.66385 0 8.94113 0.112 9.16513 0.336C9.38913 0.56 9.50074 0.836889 9.49996 1.16667V10.5C9.49996 10.8306 9.38796 11.1078 9.16396 11.3318C8.93996 11.5558 8.66307 11.6674 8.33329 11.6667H1.33329ZM13 21C12.6694 21 12.3925 20.888 12.1693 20.664C11.9461 20.44 11.8341 20.1631 11.8333 19.8333V10.5C11.8333 10.1694 11.9453 9.89256 12.1693 9.66933C12.3933 9.44611 12.6702 9.33411 13 9.33333H20C20.3305 9.33333 20.6078 9.44533 20.8318 9.66933C21.0558 9.89333 21.1674 10.1702 21.1666 10.5V19.8333C21.1666 20.1639 21.0546 20.4412 20.8306 20.6652C20.6066 20.8892 20.3297 21.0008 20 21H13ZM1.33329 21C1.00274 21 0.725848 20.888 0.502626 20.664C0.279404 20.44 0.167404 20.1631 0.166626 19.8333V15.1667C0.166626 14.8361 0.278626 14.5592 0.502626 14.336C0.726626 14.1128 1.00351 14.0008 1.33329 14H8.33329C8.66385 14 8.94113 14.112 9.16513 14.336C9.38913 14.56 9.50074 14.8369 9.49996 15.1667V19.8333C9.49996 20.1639 9.38796 20.4412 9.16396 20.6652C8.93996 20.8892 8.66307 21.0008 8.33329 21H1.33329Z" fill="#6158FF"/>
</svg>
