<svg width="24" height="24" viewBox="0 0 24 24" fill="none" xmlns="http://www.w3.org/2000/svg">
<path d="M12 0.845001L21.66 6.423V17.577L12 23.155L2.33997 17.577V6.423L12 0.845001ZM12 3.155L4.33997 7.577V16.423L12 20.845L19.66 16.423V7.577L12 3.155ZM12 9C11.2043 9 10.4413 9.31607 9.87864 9.87868C9.31604 10.4413 8.99997 11.2044 8.99997 12C8.99997 12.7957 9.31604 13.5587 9.87864 14.1213C10.4413 14.6839 11.2043 15 12 15C12.7956 15 13.5587 14.6839 14.1213 14.1213C14.6839 13.5587 15 12.7957 15 12C15 11.2044 14.6839 10.4413 14.1213 9.87868C13.5587 9.31607 12.7956 9 12 9ZM6.99997 12C6.99997 10.6739 7.52675 9.40215 8.46443 8.46447C9.40211 7.52678 10.6739 7 12 7C13.326 7 14.5978 7.52678 15.5355 8.46447C16.4732 9.40215 17 10.6739 17 12C17 13.3261 16.4732 14.5979 15.5355 15.5355C14.5978 16.4732 13.326 17 12 17C10.6739 17 9.40211 16.4732 8.46443 15.5355C7.52675 14.5979 6.99997 13.3261 6.99997 12Z" fill="white"/>
</svg>
