<svg width="22" height="25" viewBox="0 0 22 25" fill="none" xmlns="http://www.w3.org/2000/svg">
<path d="M5.74023 24.0625H16.2602C17.4206 24.0625 18.5334 23.6016 19.3538 22.7811C20.1743 21.9606 20.6352 20.8478 20.6352 19.6875V12.775C20.6357 11.6148 20.1752 10.502 19.3552 9.68125L11.894 2.21875C11.4877 1.8125 11.0054 1.49026 10.4745 1.27042C9.94371 1.05059 9.37478 0.937459 8.80023 0.9375H5.74023C4.57991 0.9375 3.46711 1.39844 2.64664 2.21891C1.82617 3.03938 1.36523 4.15218 1.36523 5.3125V19.6875C1.36523 20.8478 1.82617 21.9606 2.64664 22.7811C3.46711 23.6016 4.57991 24.0625 5.74023 24.0625Z" stroke="#8780FF" stroke-width="1.875" stroke-linecap="round" stroke-linejoin="round"/>
<path fill-rule="evenodd" clip-rule="evenodd" d="M9.04745 6.4257C8.7487 6.5232 8.55745 6.7207 8.50245 6.93945C8.38995 7.37945 8.50245 7.85195 8.8187 8.4432C8.9762 8.7357 9.1687 9.03195 9.3812 9.34945L9.4962 9.5207L9.67745 9.78945L9.7012 9.70445L9.8087 9.32195C9.93203 8.90279 10.0279 8.47779 10.0962 8.04695C10.2074 7.24445 10.0824 6.77445 9.70995 6.47195C9.60995 6.3907 9.36245 6.3232 9.04745 6.4257ZM9.1162 11.6157L8.7787 11.1632L8.7387 11.1032C8.59495 10.8657 8.43495 10.6282 8.2612 10.372L8.1362 10.1857C7.90619 9.8513 7.6926 9.50589 7.4962 9.1507C7.1087 8.4282 6.7987 7.5432 7.0487 6.56695C7.2612 5.73695 7.9212 5.2157 8.58245 4.99945C9.2287 4.78945 10.0499 4.8157 10.6574 5.3082C11.6474 6.1132 11.7174 7.27445 11.5812 8.25445C11.5053 8.75035 11.3963 9.24061 11.2549 9.72195L11.1349 10.147C11.0416 10.4653 10.9549 10.7857 10.8749 11.1082L10.7912 11.3507L12.5312 13.6807C13.3437 13.5832 14.2362 13.5245 15.0687 13.5845C16.0299 13.652 17.0624 13.887 17.7662 14.5545C17.9926 14.7894 18.1565 15.0774 18.2428 15.3921C18.329 15.7068 18.3349 16.0381 18.2599 16.3557C18.1137 16.9557 17.6924 17.4557 17.1112 17.7595C15.8799 18.4032 14.7337 17.8907 13.8824 17.2395C13.2162 16.7307 12.5762 16.0207 12.0374 15.4232L11.9074 15.2807C11.4449 15.352 11.0074 15.432 10.6524 15.4995C10.2712 15.5707 9.79745 15.6595 9.28245 15.7745L9.0937 16.3282C8.98953 16.5682 8.89036 16.8099 8.7962 17.0532L8.6437 17.432C8.4898 17.8219 8.31153 18.2019 8.10995 18.5695C7.69745 19.292 7.0387 20.0595 5.9337 20.1207C4.4537 20.2032 3.4512 18.8895 3.7387 17.4857L3.7462 17.452C3.9962 16.4632 4.8637 15.8145 5.70245 15.3857C6.4487 15.0032 7.31995 14.7207 8.1287 14.5095L9.1162 11.6157ZM10.2037 13.072L9.84495 14.1257L10.3712 14.0257L10.3762 14.0245L10.8512 13.937L10.2037 13.072ZM13.7537 15.077C14.0962 15.4395 14.4374 15.777 14.7924 16.0482C15.4799 16.5732 15.9674 16.6645 16.4162 16.4295C16.6662 16.2982 16.7712 16.1282 16.8024 16.002C16.8176 15.9343 16.8164 15.8639 16.799 15.7968C16.7817 15.7296 16.7485 15.6675 16.7024 15.6157C16.3812 15.3307 15.7999 15.1407 14.9624 15.0807C14.56 15.0551 14.1563 15.0538 13.7537 15.077ZM7.49745 16.2607C7.09995 16.397 6.72245 16.5482 6.38495 16.7207C5.6512 17.0957 5.29745 17.4757 5.20495 17.8045C5.10745 18.3232 5.44495 18.6457 5.84995 18.6232C6.18745 18.6045 6.48245 18.3932 6.80745 17.8245C6.97745 17.5145 7.12661 17.1949 7.25495 16.8657L7.3887 16.5332L7.49745 16.2607Z" fill="#8780FF"/>
</svg>
