<svg width="21" height="21" viewBox="0 0 21 21" fill="none" xmlns="http://www.w3.org/2000/svg">
<g clip-path="url(#clip0_386_4204)">
<path d="M4.65774 8.82159C4.41818 7.24376 5.53069 5.82647 7.23018 5.30721C7.53177 5.21563 7.85691 5.24217 8.13966 5.38144C8.42241 5.52072 8.64162 5.76232 8.75282 6.05725L9.29841 7.51216C9.38624 7.74622 9.40213 8.00118 9.34402 8.24433C9.28592 8.48748 9.15648 8.70771 8.97231 8.87677L7.34933 10.363C7.26923 10.4364 7.20955 10.5293 7.17613 10.6326C7.14271 10.7359 7.1367 10.8462 7.15869 10.9525L7.17374 11.0178L7.21262 11.1808C7.41496 11.9729 7.72248 12.7343 8.12696 13.4447C8.5686 14.199 9.11599 14.8862 9.75245 15.4853L9.80262 15.5305C9.88364 15.6024 9.98192 15.6521 10.0879 15.6748C10.1938 15.6974 10.3038 15.6922 10.4072 15.6597L12.5055 14.9987C12.744 14.9238 12.9994 14.9219 13.2389 14.9932C13.4785 15.0645 13.6913 15.2057 13.85 15.3988L14.8434 16.6041C15.2573 17.1058 15.2071 17.8433 14.7318 18.2861C13.4311 19.4989 11.6426 19.7472 10.3984 18.7476C8.87262 17.5181 7.58683 16.0175 6.60557 14.3214C5.61471 12.6275 4.95463 10.7614 4.65774 8.82159ZM8.47313 11.0353L9.81767 9.80115C10.1862 9.46317 10.4453 9.02277 10.5618 8.53647C10.6782 8.05016 10.6466 7.54016 10.4711 7.07193L9.92679 5.61701C9.70347 5.02347 9.2626 4.53719 8.69372 4.25694C8.12484 3.9767 7.47062 3.9235 6.86394 4.10816C4.75306 4.75409 3.05858 6.64674 3.4173 9.01098C3.66814 10.6616 4.24635 12.7611 5.52191 14.9536C6.58062 16.7824 7.9676 18.4002 9.61323 19.7259C11.4795 21.2247 13.9704 20.713 15.5884 19.2054C16.0514 18.7744 16.3324 18.1829 16.3741 17.5517C16.4158 16.9205 16.2151 16.2972 15.8129 15.8089L14.8196 14.6024C14.5018 14.2167 14.076 13.9347 13.5969 13.7925C13.1178 13.6504 12.6072 13.6546 12.1305 13.8047L10.3883 14.3528C9.93851 13.889 9.5445 13.3742 9.21438 12.8188C8.89582 12.2572 8.6473 11.6587 8.47438 11.0366" fill="#737373"/>
</g>
<defs>
<clipPath id="clip0_386_4204">
<rect width="20.0678" height="20.0678" fill="white"/>
</clipPath>
</defs>
</svg>
