<svg width="26" height="26" viewBox="0 0 26 26" fill="none" xmlns="http://www.w3.org/2000/svg">
<path d="M6.83182 9.4375C4.01299 10.2207 2.16699 11.524 2.16699 13.0006C2.16699 15.3947 7.01707 17.3339 13.0003 17.3339C13.8377 17.3339 14.6535 17.296 15.4357 17.2234" stroke="#6158FF" stroke-width="1.5" stroke-linecap="round" stroke-linejoin="round"/>
<path d="M19.1663 16.5624C21.9862 15.7803 23.8333 14.4759 23.8333 12.9993C23.8333 10.6052 18.9832 8.66602 13 8.66602C12.1626 8.66602 11.3468 8.70393 10.5625 8.77652" stroke="#6158FF" stroke-width="1.5" stroke-linecap="round" stroke-linejoin="round"/>
<path d="M6.83186 16.5609C6.09952 19.3938 6.30644 21.645 7.58477 22.3817C9.65719 23.5787 13.763 20.3482 16.7541 15.1667C17.1734 14.4408 17.5482 13.7161 17.8764 13" stroke="#6158FF" stroke-width="1.5" stroke-linecap="round" stroke-linejoin="round"/>
<path d="M19.1667 9.44237C19.9001 6.60837 19.6942 4.35504 18.4148 3.61838C16.3424 2.42129 12.2366 5.65179 9.24549 10.8334C8.82624 11.5592 8.4514 12.285 8.12207 13" stroke="#6158FF" stroke-width="1.5" stroke-linecap="round" stroke-linejoin="round"/>
<path d="M13.0014 5.87619C10.916 3.82653 8.8631 2.87969 7.58477 3.61853C5.51236 4.81453 6.25661 9.98528 9.24877 15.1669C9.66694 15.8927 10.1079 16.5795 10.5618 17.2209" stroke="#6158FF" stroke-width="1.5" stroke-linecap="round" stroke-linejoin="round"/>
<path d="M13 20.1209C15.0865 22.1717 17.1394 23.1196 18.4167 22.3808C20.4891 21.1848 19.7448 16.014 16.7527 10.8324C16.3464 10.1283 15.9077 9.44251 15.4397 8.77734" stroke="#6158FF" stroke-width="1.5" stroke-linecap="round" stroke-linejoin="round"/>
<path d="M12.4583 13.9378C12.5815 14.0101 12.7179 14.0573 12.8594 14.0766C13.001 14.096 13.145 14.0871 13.2831 14.0506C13.4212 14.0141 13.5508 13.9506 13.6642 13.8638C13.7777 13.777 13.8729 13.6687 13.9444 13.5449C14.0158 13.4212 14.0621 13.2846 14.0805 13.1429C14.0989 13.0012 14.0891 12.8573 14.0517 12.7194C14.0142 12.5815 13.9499 12.4524 13.8624 12.3395C13.7748 12.2266 13.6658 12.1321 13.5416 12.0615C13.2929 11.9201 12.9984 11.8828 12.7223 11.9578C12.4463 12.0327 12.211 12.2138 12.068 12.4616C11.925 12.7093 11.8857 13.0036 11.9588 13.2802C12.032 13.5567 12.2115 13.7932 12.4583 13.9378Z" stroke="#6158FF" stroke-width="1.5" stroke-linecap="round" stroke-linejoin="round"/>
</svg>
