<svg width="30" height="30" viewBox="0 0 30 30" fill="none" xmlns="http://www.w3.org/2000/svg">
<g clip-path="url(#clip0_597_4470)">
<path d="M16.9917 6.94995L25 15L16.9917 23.05C16.9193 23.1449 16.8275 23.2233 16.7222 23.2796C16.617 23.336 16.5009 23.3691 16.3817 23.3767C16.2626 23.3843 16.1432 23.3662 16.0317 23.3237C15.9201 23.2811 15.819 23.2151 15.7352 23.1301C15.6514 23.0451 15.5869 22.9431 15.5459 22.8309C15.505 22.7188 15.4886 22.5992 15.4979 22.4801C15.5072 22.3611 15.5419 22.2455 15.5998 22.1411C15.6577 22.0367 15.7373 21.9459 15.8333 21.875L21.825 15.8333H5.88334C5.66232 15.8333 5.45036 15.7455 5.29408 15.5892C5.1378 15.4329 5.05 15.221 5.05 15C5.05 14.7789 5.1378 14.567 5.29408 14.4107C5.45036 14.2544 5.66232 14.1666 5.88334 14.1666H21.825L15.8333 8.12495C15.6775 7.96803 15.5904 7.75564 15.5912 7.5345C15.592 7.31337 15.6806 7.1016 15.8375 6.94578C15.9944 6.78997 16.2068 6.70287 16.4279 6.70365C16.6491 6.70444 16.8609 6.79303 17.0167 6.94995H16.9917Z" fill="black"/>
</g>
<defs>
<clipPath id="clip0_597_4470">
<rect width="30" height="30" fill="white" transform="matrix(0 -1 -1 0 30 30)"/>
</clipPath>
</defs>
</svg>
