<svg width="17" height="16" viewBox="0 0 17 16" fill="none" xmlns="http://www.w3.org/2000/svg">
<path fill-rule="evenodd" clip-rule="evenodd" d="M6.75 1.5C5.42392 1.5 4.15215 2.02678 3.21447 2.96447C2.27678 3.90215 1.75 5.17392 1.75 6.5C1.75 7.82608 2.27678 9.09785 3.21447 10.0355C4.15215 10.9732 5.42392 11.5 6.75 11.5C8.07608 11.5 9.34785 10.9732 10.2855 10.0355C11.2232 9.09785 11.75 7.82608 11.75 6.5C11.75 5.17392 11.2232 3.90215 10.2855 2.96447C9.34785 2.02678 8.07608 1.5 6.75 1.5ZM0.25 6.5C0.25 4.77609 0.934819 3.12279 2.15381 1.90381C3.37279 0.684819 5.02609 0 6.75 0C8.47391 0 10.1272 0.684819 11.3462 1.90381C12.5652 3.12279 13.25 4.77609 13.25 6.5C13.25 8.22391 12.5652 9.87721 11.3462 11.0962C10.1272 12.3152 8.47391 13 6.75 13C5.02609 13 3.37279 12.3152 2.15381 11.0962C0.934819 9.87721 0.25 8.22391 0.25 6.5Z" fill="#858585"/>
<path fill-rule="evenodd" clip-rule="evenodd" d="M10.7198 10.4693C10.8605 10.3289 11.0511 10.25 11.2498 10.25C11.4486 10.25 11.6392 10.3289 11.7798 10.4693L15.7798 14.4693C15.8535 14.538 15.9126 14.6208 15.9536 14.7128C15.9946 14.8048 16.0166 14.9041 16.0184 15.0048C16.0202 15.1055 16.0017 15.2055 15.964 15.2989C15.9262 15.3923 15.8701 15.4772 15.7989 15.5484C15.7276 15.6196 15.6428 15.6757 15.5494 15.7135C15.456 15.7512 15.356 15.7697 15.2553 15.7679C15.1546 15.7662 15.0553 15.7441 14.9633 15.7031C14.8713 15.6621 14.7885 15.603 14.7198 15.5293L10.7198 11.5293C10.5794 11.3887 10.5005 11.1981 10.5005 10.9993C10.5005 10.8006 10.5794 10.61 10.7198 10.4693Z" fill="#858585"/>
</svg>
