<svg width="20" height="20" viewBox="0 0 20 20" fill="none" xmlns="http://www.w3.org/2000/svg">
<path d="M11.4068 2.36099C10.9235 1.05506 9.07646 1.05506 8.59322 2.36099L6.98974 6.69433C6.9391 6.83119 6.83119 6.9391 6.69433 6.98974L2.36099 8.59322C1.05506 9.07646 1.05506 10.9235 2.36099 11.4068L6.69433 13.0103C6.83119 13.0609 6.9391 13.1688 6.98974 13.3057L8.59322 17.639C9.07646 18.9449 10.9235 18.9449 11.4068 17.639L13.0103 13.3057C13.0609 13.1688 13.1688 13.0609 13.3057 13.0103L17.639 11.4068C18.9449 10.9235 18.9449 9.07646 17.639 8.59322L13.3057 6.98974C13.1688 6.9391 13.0609 6.83119 13.0103 6.69433L11.4068 2.36099Z" fill="white" stroke="#858585"/>
</svg>
