<svg width="31" height="30" viewBox="0 0 31 30" fill="none" xmlns="http://www.w3.org/2000/svg">
<path opacity="0.4" d="M5.20215 7.5C5.20215 6.83696 5.46554 6.20107 5.93438 5.73223C6.40322 5.26339 7.03911 5 7.70215 5H22.7021C23.3652 5 24.0011 5.26339 24.4699 5.73223C24.9388 6.20107 25.2021 6.83696 25.2021 7.5V10C25.2021 10.663 24.9388 11.2989 24.4699 11.7678C24.0011 12.2366 23.3652 12.5 22.7021 12.5H7.70215C7.03911 12.5 6.40322 12.2366 5.93438 11.7678C5.46554 11.2989 5.20215 10.663 5.20215 10V7.5ZM5.20215 20C5.20215 19.337 5.46554 18.7011 5.93438 18.2322C6.40322 17.7634 7.03911 17.5 7.70215 17.5H22.7021C23.3652 17.5 24.0011 17.7634 24.4699 18.2322C24.9388 18.7011 25.2021 19.337 25.2021 20V22.5C25.2021 23.163 24.9388 23.7989 24.4699 24.2678C24.0011 24.7366 23.3652 25 22.7021 25H7.70215C7.03911 25 6.40322 24.7366 5.93438 24.2678C5.46554 23.7989 5.20215 23.163 5.20215 22.5V20Z" fill="#6158FF"/>
</svg>
