<svg width="27" height="26" viewBox="0 0 27 26" fill="none" xmlns="http://www.w3.org/2000/svg">
<path d="M0.721191 3.25C0.721191 2.38805 1.0636 1.5614 1.67309 0.951903C2.28259 0.34241 3.10924 0 3.97119 0H23.4712C24.3331 0 25.1598 0.34241 25.7693 0.951903C26.3788 1.5614 26.7212 2.38805 26.7212 3.25V6.5C26.7212 7.36195 26.3788 8.1886 25.7693 8.7981C25.1598 9.40759 24.3331 9.75 23.4712 9.75H3.97119C3.10924 9.75 2.28259 9.40759 1.67309 8.7981C1.0636 8.1886 0.721191 7.36195 0.721191 6.5V3.25ZM0.721191 19.5C0.721191 18.638 1.0636 17.8114 1.67309 17.2019C2.28259 16.5924 3.10924 16.25 3.97119 16.25H23.4712C24.3331 16.25 25.1598 16.5924 25.7693 17.2019C26.3788 17.8114 26.7212 18.638 26.7212 19.5V22.75C26.7212 23.612 26.3788 24.4386 25.7693 25.0481C25.1598 25.6576 24.3331 26 23.4712 26H3.97119C3.10924 26 2.28259 25.6576 1.67309 25.0481C1.0636 24.4386 0.721191 23.612 0.721191 22.75V19.5Z" fill="#6158FF"/>
</svg>
