<svg width="26" height="18" viewBox="0 0 26 18" fill="none" xmlns="http://www.w3.org/2000/svg">
<path d="M22.3333 1H3.66667C2.19391 1 1 2.19391 1 3.66667V14.3333C1 15.8061 2.19391 17 3.66667 17H22.3333C23.8061 17 25 15.8061 25 14.3333V3.66667C25 2.19391 23.8061 1 22.3333 1Z" stroke="#6158FF"/>
<path d="M3.66602 5H7.66602M18.3327 13H22.3327" stroke="#6158FF" stroke-linecap="round"/>
<path d="M13.0007 11.6654C14.4734 11.6654 15.6673 10.4715 15.6673 8.9987C15.6673 7.52594 14.4734 6.33203 13.0007 6.33203C11.5279 6.33203 10.334 7.52594 10.334 8.9987C10.334 10.4715 11.5279 11.6654 13.0007 11.6654Z" stroke="#6158FF"/>
</svg>
