<svg width="28" height="28" viewBox="0 0 28 28" fill="none" xmlns="http://www.w3.org/2000/svg">
<path fill-rule="evenodd" clip-rule="evenodd" d="M15.0454 13.4356L19.467 17.8571L18.5034 18.8219L13.6818 14.0003V7.18217H15.0454V13.4356ZM14.3636 25.364C8.08749 25.364 3 20.2765 3 14.0003C3 7.72421 8.08749 2.63672 14.3636 2.63672C20.6397 2.63672 25.7272 7.72421 25.7272 14.0003C25.7272 20.2765 20.6397 25.364 14.3636 25.364ZM14.3636 24.0003C17.0158 24.0003 19.5593 22.9468 21.4347 21.0714C23.31 19.196 24.3636 16.6525 24.3636 14.0003C24.3636 11.3482 23.31 8.80464 21.4347 6.92928C19.5593 5.05392 17.0158 4.00035 14.3636 4.00035C11.7115 4.00035 9.16792 5.05392 7.29256 6.92928C5.4172 8.80464 4.36363 11.3482 4.36363 14.0003C4.36363 16.6525 5.4172 19.196 7.29256 21.0714C9.16792 22.9468 11.7115 24.0003 14.3636 24.0003Z" fill="#6158FF"/>
</svg>
