<svg width="25" height="25" viewBox="0 0 25 25" fill="none" xmlns="http://www.w3.org/2000/svg">
<path fill-rule="evenodd" clip-rule="evenodd" d="M12.459 3.16309C12.6088 3.16318 12.7566 3.19693 12.8917 3.26183C13.0267 3.32674 13.1454 3.42115 13.239 3.53809L17.239 8.53809C17.326 8.63995 17.3916 8.75825 17.432 8.88597C17.4724 9.01369 17.4867 9.14822 17.4741 9.28157C17.4615 9.41493 17.4222 9.54439 17.3586 9.66228C17.295 9.78017 17.2083 9.88407 17.1038 9.96783C16.9993 10.0516 16.879 10.1135 16.7501 10.1499C16.6212 10.1863 16.4862 10.1964 16.3533 10.1796C16.2205 10.1628 16.0923 10.1195 15.9764 10.0523C15.8606 9.98502 15.7594 9.89518 15.679 9.78809L13.459 7.01309V14.1631C13.459 14.4283 13.3536 14.6827 13.1661 14.8702C12.9786 15.0577 12.7242 15.1631 12.459 15.1631C12.1938 15.1631 11.9394 15.0577 11.7519 14.8702C11.5643 14.6827 11.459 14.4283 11.459 14.1631V7.01309L9.23898 9.78909C9.15853 9.89618 9.05738 9.98602 8.94153 10.0533C8.82569 10.1205 8.69752 10.1638 8.56462 10.1806C8.43172 10.1974 8.29681 10.1872 8.1679 10.1509C8.03898 10.1145 7.91869 10.0526 7.81415 9.96883C7.70962 9.88507 7.62298 9.78117 7.55938 9.66328C7.49578 9.54539 7.45651 9.41593 7.4439 9.28257C7.43129 9.14922 7.4456 9.01469 7.48599 8.88697C7.52637 8.75925 7.592 8.64095 7.67898 8.53909L11.679 3.53909C11.7725 3.42197 11.8912 3.32737 12.0262 3.26228C12.1612 3.1972 12.3091 3.1633 12.459 3.16309ZM9.45898 14.1631V13.1631H5.45898C4.92855 13.1631 4.41984 13.3738 4.04477 13.7489C3.6697 14.1239 3.45898 14.6327 3.45898 15.1631V19.1631C3.45898 19.6935 3.6697 20.2022 4.04477 20.5773C4.41984 20.9524 4.92855 21.1631 5.45898 21.1631H19.459C19.9894 21.1631 20.4981 20.9524 20.8732 20.5773C21.2483 20.2022 21.459 19.6935 21.459 19.1631V15.1631C21.459 14.6327 21.2483 14.1239 20.8732 13.7489C20.4981 13.3738 19.9894 13.1631 19.459 13.1631H15.459V14.1631C15.459 14.9587 15.1429 15.7218 14.5803 16.2844C14.0177 16.847 13.2546 17.1631 12.459 17.1631C11.6633 17.1631 10.9003 16.847 10.3377 16.2844C9.77505 15.7218 9.45898 14.9587 9.45898 14.1631ZM17.459 16.1631C17.1938 16.1631 16.9394 16.2684 16.7519 16.456C16.5643 16.6435 16.459 16.8979 16.459 17.1631C16.459 17.4283 16.5643 17.6827 16.7519 17.8702C16.9394 18.0577 17.1938 18.1631 17.459 18.1631H17.469C17.7342 18.1631 17.9886 18.0577 18.1761 17.8702C18.3636 17.6827 18.469 17.4283 18.469 17.1631C18.469 16.8979 18.3636 16.6435 18.1761 16.456C17.9886 16.2684 17.7342 16.1631 17.469 16.1631H17.459Z" fill="white"/>
</svg>
