<svg width="14" height="11" viewBox="0 0 14 11" fill="none" xmlns="http://www.w3.org/2000/svg">
<path d="M1.00006 0.333385H13.0001C13.1216 0.333766 13.2406 0.367275 13.3445 0.430304C13.4484 0.493333 13.5331 0.583495 13.5895 0.691087C13.646 0.798678 13.672 0.919625 13.6648 1.04091C13.6576 1.16219 13.6175 1.27921 13.5487 1.37938L7.54872 10.0461C7.30006 10.4054 6.70139 10.4054 6.45206 10.0461L0.452057 1.37938C0.382607 1.27942 0.34188 1.16234 0.3343 1.04086C0.326721 0.919372 0.35258 0.798133 0.409066 0.690313C0.465553 0.582494 0.550508 0.492216 0.6547 0.429289C0.758892 0.366363 0.878337 0.333194 1.00006 0.333385Z" fill="#6158FF"/>
</svg>
