<svg width="15" height="20" viewBox="0 0 15 20" fill="none" xmlns="http://www.w3.org/2000/svg">
<path d="M7.5 0V5.625C7.5 6.12228 7.69754 6.59919 8.04917 6.95083C8.40081 7.30246 8.87772 7.5 9.375 7.5H15V18.125C15 18.6223 14.8025 19.0992 14.4508 19.4508C14.0992 19.8025 13.6223 20 13.125 20H1.875C1.37772 20 0.900805 19.8025 0.549175 19.4508C0.197544 19.0992 0 18.6223 0 18.125V1.875C0 1.37772 0.197544 0.900806 0.549175 0.549175C0.900805 0.197544 1.37772 0 1.875 0H7.5ZM8.75 0.3125V5.625C8.75 5.79076 8.81585 5.94973 8.93306 6.06694C9.05027 6.18415 9.20924 6.25 9.375 6.25H14.6875L8.75 0.3125Z" fill="#6158FF"/>
</svg>
