<svg width="21" height="14" viewBox="0 0 21 14" fill="none" xmlns="http://www.w3.org/2000/svg">
<path fill-rule="evenodd" clip-rule="evenodd" d="M1.2 1.7V12.3H13.8V1.7H1.2ZM1 0.5H14C14.2652 0.5 14.5196 0.605357 14.7071 0.792893C14.8946 0.98043 15 1.23478 15 1.5V12.5C15 12.7652 14.8946 13.0196 14.7071 13.2071C14.5196 13.3946 14.2652 13.5 14 13.5H1C0.734784 13.5 0.48043 13.3946 0.292893 13.2071C0.105357 13.0196 0 12.7652 0 12.5V1.5C0 1.23478 0.105357 0.98043 0.292893 0.792893C0.48043 0.605357 0.734784 0.5 1 0.5ZM17.2 8.423L19.8 10.503V3.497L17.2 5.577V8.423ZM16 5L19.375 2.3C19.522 2.18228 19.6993 2.10848 19.8864 2.08709C20.0736 2.0657 20.2629 2.0976 20.4327 2.1791C20.6025 2.2606 20.7459 2.3884 20.8462 2.54779C20.9466 2.70717 20.9999 2.89165 21 3.08V10.92C20.9999 11.1083 20.9466 11.2928 20.8462 11.4522C20.7459 11.6116 20.6025 11.7394 20.4327 11.8209C20.2629 11.9024 20.0736 11.9343 19.8864 11.9129C19.6993 11.8915 19.522 11.8177 19.375 11.7L16 9V5Z" fill="#8780FF"/>
</svg>
