<svg width="194" height="51" viewBox="0 0 194 51" fill="none" xmlns="http://www.w3.org/2000/svg">
<path d="M71.122 11.6365V35.38H67.1648V15.5937H59.2503C53.9737 15.5937 51.3355 18.2319 51.3355 23.5082C51.3355 28.7846 53.9737 31.4227 59.2503 31.4227H63.2075V35.38H59.2503C51.3355 35.38 47.3783 31.4227 47.3783 23.5082C47.3783 15.5937 51.3355 11.6365 59.2503 11.6365H71.122ZM86.951 23.5082C92.2273 23.5082 94.8655 22.1892 94.8655 19.551C94.8655 16.9128 92.2273 15.5937 86.951 15.5937H75.0793V11.6365H86.951C94.8655 11.6365 98.8227 14.2747 98.8227 19.551C98.8227 22.1892 97.8333 24.1678 95.8544 25.4869C97.8333 26.8059 98.8227 28.7846 98.8227 31.4227V35.38H94.8655V31.4227C94.8655 28.7846 92.2273 27.4655 86.951 27.4655H75.0793V23.5082H86.951ZM107.786 11.6365L114.671 29.1671L121.695 11.6365H126.523L116.63 35.38H112.673L102.78 11.6365H107.786ZM134.437 11.6365V35.38H130.48V11.6365H134.437ZM138.395 23.5082C138.395 15.5937 142.352 11.6365 150.266 11.6365C158.181 11.6365 162.138 15.5937 162.138 23.5082C162.138 31.4227 158.181 35.38 150.266 35.38C142.352 35.38 138.395 31.4227 138.395 23.5082ZM142.352 23.5082C142.352 28.7846 144.99 31.4227 150.266 31.4227C155.543 31.4227 158.181 28.7846 158.181 23.5082C158.181 18.2319 155.543 15.5937 150.266 15.5937C144.99 15.5937 142.352 18.2319 142.352 23.5082ZM170.053 23.5082V35.38H166.095V23.5082C166.095 15.5937 170.053 11.6365 177.967 11.6365C185.882 11.6365 189.839 15.5937 189.839 23.5082V35.38H185.882V23.5082C185.882 18.2319 183.243 15.5937 177.967 15.5937C172.691 15.5937 170.053 18.2319 170.053 23.5082Z" fill="white"/>
<path d="M150.228 28.1547C152.909 28.1547 155.082 25.9813 155.082 23.3003C155.082 20.6193 152.909 18.4459 150.228 18.4459C147.547 18.4459 145.373 20.6193 145.373 23.3003C145.373 25.9813 147.547 28.1547 150.228 28.1547Z" fill="white"/>
<path fill-rule="evenodd" clip-rule="evenodd" d="M30.8976 11.2037V24.4716C30.8976 33.2311 35.2348 37.6533 43.9092 37.7383L42.1941 33.1928C37.6115 32.577 35.3202 29.6699 35.3202 24.4716V11.2037H30.8976Z" fill="white"/>
<path d="M3.96416 23.5082C3.96416 28.7846 6.60232 31.4227 11.8786 31.4227H23.7504V35.38H11.8786C3.96416 35.38 0.00691223 31.4227 0.00691223 23.5082C0.00691223 15.5937 3.96416 11.6365 11.8786 11.6365H23.7504V15.5937H11.8786C6.60232 15.5937 3.96416 18.2319 3.96416 23.5082Z" fill="white"/>
</svg>
